M48
; DRILL file {KiCad 7.0.11} date Sun Feb  2 20:15:24 2025
; FORMAT={-:-/ absolute / inch / decimal}
; #@! TF.CreationDate,2025-02-02T20:15:24+02:00
; #@! TF.GenerationSoftware,Kicad,Pcbnew,7.0.11
; #@! TF.FileFunction,Plated,1,2,PTH
FMAT,2
INCH
; #@! TA.AperFunction,Plated,PTH,ViaDrill
T1C0.0118
; #@! TA.AperFunction,Plated,PTH,ComponentDrill
T2C0.0394
; #@! TA.AperFunction,Plated,PTH,ComponentDrill
T3C0.0433
; #@! TA.AperFunction,Plated,PTH,ComponentDrill
T4C0.0472
%
G90
G05
T1
X1.2Y-5.255
X1.39Y-4.175
X1.456Y-4.202
X1.475Y-5.245
X1.54Y-5.93
X1.565Y-4.645
X1.625Y-5.93
X1.685Y-5.205
X1.732Y-4.718
X1.8Y-5.1
X1.835Y-4.15
X1.855Y-5.805
X1.888Y-4.676
X1.958Y-4.153
X1.986Y-4.41
X2.064Y-4.776
X2.064Y-4.84
X2.068Y-4.946
X2.075Y-5.245
X2.08Y-4.54
X2.1Y-5.125
X2.11Y-4.66
X2.11Y-4.71
X2.14Y-4.56
X2.155Y-5.29
X2.225Y-4.82
X2.23Y-4.665
X2.234Y-4.752
X2.29Y-4.94
X2.402Y-4.742
X2.405Y-4.665
X2.405Y-4.825
X2.425Y-5.1
X2.425Y-5.275
X2.475Y-5.095
X2.475Y-5.78
X2.505Y-4.115
X2.514Y-4.938
X2.56Y-4.82
X2.566Y-4.738
X2.575Y-4.67
X2.59Y-5.555
X2.595Y-5.4
X2.645Y-5.78
X2.67Y-5.475
X2.7Y-4.75
X2.7Y-4.805
X2.705Y-4.66
X2.705Y-4.7
X2.745Y-5.395
X2.75Y-5.555
X2.762Y-4.938
X2.8085Y-5.245
X2.83Y-4.62
X2.896Y-4.866
X2.925Y-5.92
X2.97Y-5.155
X2.9985Y-4.8435
X3.195Y-5.1
X3.3274Y-4.235
X3.3444Y-4.521
X3.355Y-5.095
X3.375Y-5.63
X3.415Y-5.165
X3.415Y-5.31
X3.425Y-5.68
X3.475Y-5.23
X3.49Y-4.275
X3.495Y-4.445
X3.5Y-4.36
X3.645Y-5.45
X3.735Y-4.455
X3.74Y-4.23
X3.745Y-4.335
X3.755Y-5.03
X3.83Y-5.285
X3.93Y-5.43
X3.975Y-5.43
X3.995Y-5.03
X4.015Y-4.155
X4.025Y-4.31
X4.025Y-4.455
X4.07Y-5.46
X4.11Y-4.93
X4.1532Y-4.6882
X4.24Y-4.93
X4.2444Y-4.409
X4.3464Y-4.267
X4.54Y-4.285
X4.61Y-5.135
X4.625Y-5.24
X4.635Y-5.09
X4.6374Y-4.93
X4.675Y-5.09
X4.735Y-4.975
X4.78Y-5.075
X4.815Y-4.845
X4.885Y-5.075
X4.905Y-4.845
X4.935Y-4.98
T2
X1.0702Y-5.635
X1.1702Y-5.635
X1.2702Y-5.635
X1.3702Y-5.635
X1.4702Y-5.635
X1.5702Y-5.635
X1.6702Y-5.635
X3.0448Y-5.005
X3.1448Y-5.005
T3
X4.412Y-5.6964
X4.412Y-5.8736
X4.668Y-5.6964
X4.668Y-5.8736
T4
X4.7922Y-4.4988
X4.93Y-4.6957
M30
