%TF.GenerationSoftware,KiCad,Pcbnew,7.0.11*%
%TF.CreationDate,2025-02-02T20:15:26+02:00*%
%TF.ProjectId,obd_xp,6f62645f-7870-42e6-9b69-6361645f7063,rev?*%
%TF.SameCoordinates,Original*%
%TF.FileFunction,Copper,L1,Top*%
%TF.FilePolarity,Positive*%
%FSLAX46Y46*%
G04 Gerber Fmt 4.6, Leading zero omitted, Abs format (unit mm)*
G04 Created by KiCad (PCBNEW 7.0.11) date 2025-02-02 20:15:26*
%MOMM*%
%LPD*%
G01*
G04 APERTURE LIST*
G04 Aperture macros list*
%AMRoundRect*
0 Rectangle with rounded corners*
0 $1 Rounding radius*
0 $2 $3 $4 $5 $6 $7 $8 $9 X,Y pos of 4 corners*
0 Add a 4 corners polygon primitive as box body*
4,1,4,$2,$3,$4,$5,$6,$7,$8,$9,$2,$3,0*
0 Add four circle primitives for the rounded corners*
1,1,$1+$1,$2,$3*
1,1,$1+$1,$4,$5*
1,1,$1+$1,$6,$7*
1,1,$1+$1,$8,$9*
0 Add four rect primitives between the rounded corners*
20,1,$1+$1,$2,$3,$4,$5,0*
20,1,$1+$1,$4,$5,$6,$7,0*
20,1,$1+$1,$6,$7,$8,$9,0*
20,1,$1+$1,$8,$9,$2,$3,0*%
G04 Aperture macros list end*
%TA.AperFunction,SMDPad,CuDef*%
%ADD10RoundRect,0.500000X-0.500000X-2.250000X0.500000X-2.250000X0.500000X2.250000X-0.500000X2.250000X0*%
%TD*%
%TA.AperFunction,SMDPad,CuDef*%
%ADD11RoundRect,0.250000X-0.250000X-0.475000X0.250000X-0.475000X0.250000X0.475000X-0.250000X0.475000X0*%
%TD*%
%TA.AperFunction,SMDPad,CuDef*%
%ADD12RoundRect,0.250000X-0.262500X-0.450000X0.262500X-0.450000X0.262500X0.450000X-0.262500X0.450000X0*%
%TD*%
%TA.AperFunction,SMDPad,CuDef*%
%ADD13RoundRect,0.250000X0.262500X0.450000X-0.262500X0.450000X-0.262500X-0.450000X0.262500X-0.450000X0*%
%TD*%
%TA.AperFunction,SMDPad,CuDef*%
%ADD14R,3.400000X1.800000*%
%TD*%
%TA.AperFunction,SMDPad,CuDef*%
%ADD15RoundRect,0.250000X-0.475000X0.250000X-0.475000X-0.250000X0.475000X-0.250000X0.475000X0.250000X0*%
%TD*%
%TA.AperFunction,SMDPad,CuDef*%
%ADD16RoundRect,0.243750X-0.243750X-0.456250X0.243750X-0.456250X0.243750X0.456250X-0.243750X0.456250X0*%
%TD*%
%TA.AperFunction,SMDPad,CuDef*%
%ADD17RoundRect,0.250000X-0.450000X0.262500X-0.450000X-0.262500X0.450000X-0.262500X0.450000X0.262500X0*%
%TD*%
%TA.AperFunction,SMDPad,CuDef*%
%ADD18R,0.900000X2.000000*%
%TD*%
%TA.AperFunction,SMDPad,CuDef*%
%ADD19R,2.000000X0.900000*%
%TD*%
%TA.AperFunction,SMDPad,CuDef*%
%ADD20R,5.000000X5.000000*%
%TD*%
%TA.AperFunction,SMDPad,CuDef*%
%ADD21RoundRect,0.250000X0.475000X-0.250000X0.475000X0.250000X-0.475000X0.250000X-0.475000X-0.250000X0*%
%TD*%
%TA.AperFunction,SMDPad,CuDef*%
%ADD22RoundRect,0.250000X0.450000X-0.262500X0.450000X0.262500X-0.450000X0.262500X-0.450000X-0.262500X0*%
%TD*%
%TA.AperFunction,SMDPad,CuDef*%
%ADD23RoundRect,0.243750X0.243750X0.456250X-0.243750X0.456250X-0.243750X-0.456250X0.243750X-0.456250X0*%
%TD*%
%TA.AperFunction,SMDPad,CuDef*%
%ADD24RoundRect,0.008100X0.126900X-0.411900X0.126900X0.411900X-0.126900X0.411900X-0.126900X-0.411900X0*%
%TD*%
%TA.AperFunction,SMDPad,CuDef*%
%ADD25RoundRect,0.008100X0.411900X0.126900X-0.411900X0.126900X-0.411900X-0.126900X0.411900X-0.126900X0*%
%TD*%
%TA.AperFunction,SMDPad,CuDef*%
%ADD26R,1.100000X1.100000*%
%TD*%
%TA.AperFunction,SMDPad,CuDef*%
%ADD27RoundRect,0.250000X0.250000X0.475000X-0.250000X0.475000X-0.250000X-0.475000X0.250000X-0.475000X0*%
%TD*%
%TA.AperFunction,ComponentPad*%
%ADD28R,1.800000X1.800000*%
%TD*%
%TA.AperFunction,ComponentPad*%
%ADD29C,1.800000*%
%TD*%
%TA.AperFunction,SMDPad,CuDef*%
%ADD30R,0.250000X0.600000*%
%TD*%
%TA.AperFunction,ComponentPad*%
%ADD31R,1.700000X1.700000*%
%TD*%
%TA.AperFunction,ComponentPad*%
%ADD32O,1.700000X1.700000*%
%TD*%
%TA.AperFunction,SMDPad,CuDef*%
%ADD33RoundRect,0.500000X0.500000X2.250000X-0.500000X2.250000X-0.500000X-2.250000X0.500000X-2.250000X0*%
%TD*%
%TA.AperFunction,SMDPad,CuDef*%
%ADD34R,1.800000X3.400000*%
%TD*%
%TA.AperFunction,SMDPad,CuDef*%
%ADD35RoundRect,0.075000X0.910000X0.225000X-0.910000X0.225000X-0.910000X-0.225000X0.910000X-0.225000X0*%
%TD*%
%TA.AperFunction,ComponentPad*%
%ADD36C,2.000000*%
%TD*%
%TA.AperFunction,SMDPad,CuDef*%
%ADD37RoundRect,0.243750X-0.456250X0.243750X-0.456250X-0.243750X0.456250X-0.243750X0.456250X0.243750X0*%
%TD*%
%TA.AperFunction,ViaPad*%
%ADD38C,0.600000*%
%TD*%
%TA.AperFunction,Conductor*%
%ADD39C,0.200000*%
%TD*%
%TA.AperFunction,Conductor*%
%ADD40C,0.300000*%
%TD*%
%TA.AperFunction,Conductor*%
%ADD41C,0.500000*%
%TD*%
G04 APERTURE END LIST*
D10*
%TO.P,L2,1,1*%
%TO.N,Net-(IC2-SW)*%
X63413200Y-111404400D03*
%TO.P,L2,2,2*%
%TO.N,/5V*%
X71613200Y-111404400D03*
%TD*%
D11*
%TO.P,C20,1*%
%TO.N,/12V*%
X49748400Y-117221000D03*
%TO.P,C20,2*%
%TO.N,GND*%
X51648400Y-117221000D03*
%TD*%
D12*
%TO.P,R12,1*%
%TO.N,Net-(C24-Pad1)*%
X43434000Y-112877600D03*
%TO.P,R12,2*%
%TO.N,Net-(IC2-FB)*%
X45259000Y-112877600D03*
%TD*%
D13*
%TO.P,R7,1*%
%TO.N,Net-(IC1-EN)*%
X110295100Y-105537000D03*
%TO.P,R7,2*%
%TO.N,/12V*%
X108470100Y-105537000D03*
%TD*%
D11*
%TO.P,C19,1*%
%TO.N,/12V*%
X49723000Y-119507000D03*
%TO.P,C19,2*%
%TO.N,GND*%
X51623000Y-119507000D03*
%TD*%
D14*
%TO.P,TP1,1*%
%TO.N,/12V*%
X27559000Y-117348000D03*
%TD*%
%TO.P,TP2,1*%
%TO.N,/CANH*%
X27889200Y-128117600D03*
%TD*%
D15*
%TO.P,C21,1*%
%TO.N,Net-(IC2-BST)*%
X53187600Y-111318000D03*
%TO.P,C21,2*%
%TO.N,Net-(IC2-SW)*%
X53187600Y-113218000D03*
%TD*%
D16*
%TO.P,D3,1,K*%
%TO.N,GND*%
X65102500Y-104521000D03*
%TO.P,D3,2,A*%
%TO.N,Net-(D3-A)*%
X66977500Y-104521000D03*
%TD*%
D17*
%TO.P,R3,1*%
%TO.N,/3V3*%
X109484200Y-111990500D03*
%TO.P,R3,2*%
%TO.N,Net-(IC1-PG)*%
X109484200Y-113815500D03*
%TD*%
D18*
%TO.P,MOD1,1,GND*%
%TO.N,GND*%
X74304000Y-131596000D03*
%TO.P,MOD1,2,3V3*%
%TO.N,/3V3*%
X73034000Y-131596000D03*
%TO.P,MOD1,3,EN*%
%TO.N,/ENABLE*%
X71764000Y-131596000D03*
%TO.P,MOD1,4,SENSOR_VP*%
%TO.N,unconnected-(MOD1-SENSOR_VP-Pad4)*%
X70494000Y-131596000D03*
%TO.P,MOD1,5,SENSOR_VN*%
%TO.N,unconnected-(MOD1-SENSOR_VN-Pad5)*%
X69224000Y-131596000D03*
%TO.P,MOD1,6,IO34*%
%TO.N,unconnected-(MOD1-IO34-Pad6)*%
X67954000Y-131596000D03*
%TO.P,MOD1,7,IO35*%
%TO.N,unconnected-(MOD1-IO35-Pad7)*%
X66684000Y-131596000D03*
%TO.P,MOD1,8,IO32*%
%TO.N,unconnected-(MOD1-IO32-Pad8)*%
X65414000Y-131596000D03*
%TO.P,MOD1,9,IO33*%
%TO.N,unconnected-(MOD1-IO33-Pad9)*%
X64144000Y-131596000D03*
%TO.P,MOD1,10,IO25*%
%TO.N,/AUDIO_LRC*%
X62874000Y-131596000D03*
%TO.P,MOD1,11,IO26*%
%TO.N,/AUDIO_BCLK*%
X61604000Y-131596000D03*
%TO.P,MOD1,12,IO27*%
%TO.N,unconnected-(MOD1-IO27-Pad12)*%
X60334000Y-131596000D03*
%TO.P,MOD1,13,IO14*%
%TO.N,unconnected-(MOD1-IO14-Pad13)*%
X59064000Y-131596000D03*
%TO.P,MOD1,14,IO12*%
%TO.N,Net-(MOD1-IO12)*%
X57794000Y-131596000D03*
D19*
%TO.P,MOD1,15,GND*%
%TO.N,GND*%
X56794000Y-134381000D03*
%TO.P,MOD1,16,IO13*%
%TO.N,unconnected-(MOD1-IO13-Pad16)*%
X56794000Y-135651000D03*
%TO.P,MOD1,17,SHD/SD2*%
%TO.N,unconnected-(MOD1-SHD{slash}SD2-Pad17)*%
X56794000Y-136921000D03*
%TO.P,MOD1,18,SWP/SD3*%
%TO.N,unconnected-(MOD1-SWP{slash}SD3-Pad18)*%
X56794000Y-138191000D03*
%TO.P,MOD1,19,SCS/CMD*%
%TO.N,unconnected-(MOD1-SCS{slash}CMD-Pad19)*%
X56794000Y-139461000D03*
%TO.P,MOD1,20,SCK/CLK*%
%TO.N,unconnected-(MOD1-SCK{slash}CLK-Pad20)*%
X56794000Y-140731000D03*
%TO.P,MOD1,21,SDO/SD0*%
%TO.N,/CTX*%
X56794000Y-142001000D03*
%TO.P,MOD1,22,SDI/SD1*%
%TO.N,/CRX*%
X56794000Y-143271000D03*
%TO.P,MOD1,23,IO15*%
%TO.N,unconnected-(MOD1-IO15-Pad23)*%
X56794000Y-144541000D03*
%TO.P,MOD1,24,IO2*%
%TO.N,Net-(MOD1-IO2)*%
X56794000Y-145811000D03*
D18*
%TO.P,MOD1,25,IO0*%
%TO.N,/IO_0*%
X57794000Y-148596000D03*
%TO.P,MOD1,26,IO4*%
%TO.N,unconnected-(MOD1-IO4-Pad26)*%
X59064000Y-148596000D03*
%TO.P,MOD1,27,IO16*%
%TO.N,unconnected-(MOD1-IO16-Pad27)*%
X60334000Y-148596000D03*
%TO.P,MOD1,28,IO17*%
%TO.N,unconnected-(MOD1-IO17-Pad28)*%
X61604000Y-148596000D03*
%TO.P,MOD1,29,IO5*%
%TO.N,/SD_CS*%
X62874000Y-148596000D03*
%TO.P,MOD1,30,IO18*%
%TO.N,/SD_CLK*%
X64144000Y-148596000D03*
%TO.P,MOD1,31,IO19*%
%TO.N,/SD_MISO*%
X65414000Y-148596000D03*
%TO.P,MOD1,32,NC*%
%TO.N,unconnected-(MOD1-NC-Pad32)*%
X66684000Y-148596000D03*
%TO.P,MOD1,33,IO21*%
%TO.N,unconnected-(MOD1-IO21-Pad33)*%
X67954000Y-148596000D03*
%TO.P,MOD1,34,RXD0*%
%TO.N,/TX*%
X69224000Y-148596000D03*
%TO.P,MOD1,35,TXD0*%
%TO.N,/RX*%
X70494000Y-148596000D03*
%TO.P,MOD1,36,IO22*%
%TO.N,/AUDIO_DIN*%
X71764000Y-148596000D03*
%TO.P,MOD1,37,IO23*%
%TO.N,/SD_MOSI*%
X73034000Y-148596000D03*
%TO.P,MOD1,38,GND*%
%TO.N,GND*%
X74304000Y-148596000D03*
D20*
%TO.P,MOD1,39,GND*%
X67804000Y-139096000D03*
%TD*%
D21*
%TO.P,C5,1*%
%TO.N,/5V*%
X121412000Y-132268000D03*
%TO.P,C5,2*%
%TO.N,GND*%
X121412000Y-130368000D03*
%TD*%
D22*
%TO.P,R6,1*%
%TO.N,GND*%
X109281000Y-125245500D03*
%TO.P,R6,2*%
%TO.N,Net-(C17-Pad1)*%
X109281000Y-123420500D03*
%TD*%
D23*
%TO.P,D4,1,K*%
%TO.N,GND*%
X93950000Y-127762000D03*
%TO.P,D4,2,A*%
%TO.N,Net-(D4-A)*%
X92075000Y-127762000D03*
%TD*%
D22*
%TO.P,R5,1*%
%TO.N,/3V3*%
X116012000Y-125245500D03*
%TO.P,R5,2*%
%TO.N,Net-(C17-Pad1)*%
X116012000Y-123420500D03*
%TD*%
D11*
%TO.P,C16,1*%
%TO.N,/3V3*%
X84836000Y-110109000D03*
%TO.P,C16,2*%
%TO.N,GND*%
X86736000Y-110109000D03*
%TD*%
D24*
%TO.P,U1,1,DIN*%
%TO.N,/AUDIO_DIN*%
X116725000Y-134531000D03*
%TO.P,U1,2,GAIN_SLOT*%
%TO.N,GND*%
X117225000Y-134531000D03*
%TO.P,U1,3,GND*%
X117725000Y-134531000D03*
%TO.P,U1,4,SD_MODE*%
%TO.N,Net-(U1-SD_MODE)*%
X118225000Y-134531000D03*
D25*
%TO.P,U1,5*%
%TO.N,N/C*%
X118910000Y-133846000D03*
%TO.P,U1,6*%
X118910000Y-133346000D03*
%TO.P,U1,7,VDD*%
%TO.N,/5V*%
X118910000Y-132846000D03*
%TO.P,U1,8,VDD*%
X118910000Y-132346000D03*
D24*
%TO.P,U1,9,OUTP*%
%TO.N,Net-(U1-OUTP)*%
X118225000Y-131661000D03*
%TO.P,U1,10,OUTN*%
%TO.N,Net-(U1-OUTN)*%
X117725000Y-131661000D03*
%TO.P,U1,11,GND*%
%TO.N,GND*%
X117225000Y-131661000D03*
%TO.P,U1,12*%
%TO.N,N/C*%
X116725000Y-131661000D03*
D25*
%TO.P,U1,13*%
X116040000Y-132346000D03*
%TO.P,U1,14,LRCLK*%
%TO.N,/AUDIO_LRC*%
X116040000Y-132846000D03*
%TO.P,U1,15,GND*%
%TO.N,GND*%
X116040000Y-133346000D03*
%TO.P,U1,16,BCLK*%
%TO.N,/AUDIO_BCLK*%
X116040000Y-133846000D03*
D26*
%TO.P,U1,17,EP*%
%TO.N,GND*%
X117475000Y-133096000D03*
%TD*%
D11*
%TO.P,C15,1*%
%TO.N,/3V3*%
X84836000Y-112522000D03*
%TO.P,C15,2*%
%TO.N,GND*%
X86736000Y-112522000D03*
%TD*%
D17*
%TO.P,R18,1*%
%TO.N,Net-(D2-A)*%
X33655000Y-111053000D03*
%TO.P,R18,2*%
%TO.N,/12V*%
X33655000Y-112878000D03*
%TD*%
D15*
%TO.P,C11,1*%
%TO.N,Net-(IC1-SS)*%
X106106000Y-123317000D03*
%TO.P,C11,2*%
%TO.N,GND*%
X106106000Y-125217000D03*
%TD*%
D12*
%TO.P,R2,1*%
%TO.N,Net-(U1-SD_MODE)*%
X118213500Y-137668000D03*
%TO.P,R2,2*%
%TO.N,/5V*%
X120038500Y-137668000D03*
%TD*%
D27*
%TO.P,C13,1*%
%TO.N,/12V*%
X106040000Y-113792000D03*
%TO.P,C13,2*%
%TO.N,GND*%
X104140000Y-113792000D03*
%TD*%
D28*
%TO.P,J3,1,1*%
%TO.N,Net-(U1-OUTN)*%
X125222500Y-119270000D03*
D29*
%TO.P,J3,2,2*%
%TO.N,Net-(U1-OUTP)*%
X121722500Y-114270000D03*
%TD*%
D30*
%TO.P,IC2,1,PG*%
%TO.N,Net-(IC2-PG)*%
X49186400Y-114339600D03*
%TO.P,IC2,2,VIN*%
%TO.N,/12V*%
X49686400Y-114339600D03*
%TO.P,IC2,3,SW*%
%TO.N,Net-(IC2-SW)*%
X50186400Y-114339600D03*
%TO.P,IC2,4,GND*%
%TO.N,GND*%
X50686400Y-114339600D03*
%TO.P,IC2,5,BST*%
%TO.N,Net-(IC2-BST)*%
X50686400Y-112939600D03*
%TO.P,IC2,6,EN*%
%TO.N,Net-(IC2-EN)*%
X50186400Y-112939600D03*
%TO.P,IC2,7,SS*%
%TO.N,Net-(IC2-SS)*%
X49686400Y-112939600D03*
%TO.P,IC2,8,FB*%
%TO.N,Net-(IC2-FB)*%
X49186400Y-112939600D03*
%TD*%
D27*
%TO.P,C10,1*%
%TO.N,/12V*%
X105979000Y-111506000D03*
%TO.P,C10,2*%
%TO.N,GND*%
X104079000Y-111506000D03*
%TD*%
D21*
%TO.P,C4,1*%
%TO.N,/5V*%
X124079000Y-132268000D03*
%TO.P,C4,2*%
%TO.N,GND*%
X124079000Y-130368000D03*
%TD*%
D31*
%TO.P,J1,1,Pin_1*%
%TO.N,/ENABLE*%
X77338000Y-127127000D03*
D32*
%TO.P,J1,2,Pin_2*%
%TO.N,/3V3*%
X79878000Y-127127000D03*
%TD*%
D27*
%TO.P,C23,1*%
%TO.N,/5V*%
X72197000Y-121539000D03*
%TO.P,C23,2*%
%TO.N,GND*%
X70297000Y-121539000D03*
%TD*%
D21*
%TO.P,C24,1*%
%TO.N,Net-(C24-Pad1)*%
X42976800Y-108646000D03*
%TO.P,C24,2*%
%TO.N,/5V*%
X42976800Y-106746000D03*
%TD*%
D12*
%TO.P,R19,1*%
%TO.N,Net-(D3-A)*%
X69699500Y-104521000D03*
%TO.P,R19,2*%
%TO.N,/5V*%
X71524500Y-104521000D03*
%TD*%
%TO.P,R9,1*%
%TO.N,GND*%
X41200700Y-118008400D03*
%TO.P,R9,2*%
%TO.N,Net-(IC2-EN)*%
X43025700Y-118008400D03*
%TD*%
D33*
%TO.P,L1,1,1*%
%TO.N,Net-(IC1-SW)*%
X95601000Y-120777000D03*
%TO.P,L1,2,2*%
%TO.N,/3V3*%
X87401000Y-120777000D03*
%TD*%
D13*
%TO.P,R20,1*%
%TO.N,Net-(D4-A)*%
X89226000Y-127762000D03*
%TO.P,R20,2*%
%TO.N,/3V3*%
X87401000Y-127762000D03*
%TD*%
D11*
%TO.P,C9,1*%
%TO.N,Net-(J4-Pin_7)*%
X27244000Y-136525000D03*
%TO.P,C9,2*%
%TO.N,/ENABLE*%
X29144000Y-136525000D03*
%TD*%
D27*
%TO.P,C6,1*%
%TO.N,Net-(U1-OUTP)*%
X126553000Y-124714000D03*
%TO.P,C6,2*%
%TO.N,GND*%
X124653000Y-124714000D03*
%TD*%
D16*
%TO.P,D1,1,K*%
%TO.N,GND*%
X47195500Y-145796000D03*
%TO.P,D1,2,A*%
%TO.N,Net-(D1-A)*%
X49070500Y-145796000D03*
%TD*%
D12*
%TO.P,R10,1*%
%TO.N,Net-(IC2-EN)*%
X43029500Y-121818400D03*
%TO.P,R10,2*%
%TO.N,/12V*%
X44854500Y-121818400D03*
%TD*%
D21*
%TO.P,C25,1*%
%TO.N,Net-(IC2-SS)*%
X49733200Y-108798400D03*
%TO.P,C25,2*%
%TO.N,GND*%
X49733200Y-106898400D03*
%TD*%
D11*
%TO.P,C1,1*%
%TO.N,/3V3*%
X83251000Y-127762000D03*
%TO.P,C1,2*%
%TO.N,GND*%
X85151000Y-127762000D03*
%TD*%
D34*
%TO.P,TP5,1*%
%TO.N,/3V3*%
X81747400Y-114782600D03*
%TD*%
D21*
%TO.P,C14,1*%
%TO.N,Net-(IC1-BST)*%
X101661000Y-120457000D03*
%TO.P,C14,2*%
%TO.N,Net-(IC1-SW)*%
X101661000Y-118557000D03*
%TD*%
D27*
%TO.P,C22,1*%
%TO.N,/5V*%
X72222400Y-119075200D03*
%TO.P,C22,2*%
%TO.N,GND*%
X70322400Y-119075200D03*
%TD*%
D35*
%TO.P,U2,1,TXD*%
%TO.N,/CRX*%
X47682000Y-130810000D03*
%TO.P,U2,2,GND*%
%TO.N,GND*%
X47682000Y-129540000D03*
%TO.P,U2,3,VCC*%
%TO.N,/5V*%
X47682000Y-128270000D03*
%TO.P,U2,4,RXD*%
%TO.N,/CTX*%
X47682000Y-127000000D03*
%TO.P,U2,5,VREF*%
%TO.N,unconnected-(U2-VREF-Pad5)*%
X42742000Y-127000000D03*
%TO.P,U2,6,CANL*%
%TO.N,/CANL*%
X42742000Y-128270000D03*
%TO.P,U2,7,CANH*%
%TO.N,/CANH*%
X42742000Y-129540000D03*
%TO.P,U2,8,S*%
%TO.N,GND*%
X42742000Y-130810000D03*
%TD*%
D11*
%TO.P,C7,1*%
%TO.N,Net-(U1-OUTN)*%
X120335000Y-124714000D03*
%TO.P,C7,2*%
%TO.N,GND*%
X122235000Y-124714000D03*
%TD*%
%TO.P,C3,1*%
%TO.N,/3V3*%
X83251000Y-134620000D03*
%TO.P,C3,2*%
%TO.N,GND*%
X85151000Y-134620000D03*
%TD*%
D17*
%TO.P,R14,1*%
%TO.N,/5V*%
X38963600Y-106732700D03*
%TO.P,R14,2*%
%TO.N,Net-(C24-Pad1)*%
X38963600Y-108557700D03*
%TD*%
D11*
%TO.P,C8,1*%
%TO.N,Net-(J4-Pin_1)*%
X42484000Y-147447000D03*
%TO.P,C8,2*%
%TO.N,/IO_0*%
X44384000Y-147447000D03*
%TD*%
D22*
%TO.P,R15,1*%
%TO.N,/CANH*%
X39217600Y-129817500D03*
%TO.P,R15,2*%
%TO.N,/CANL*%
X39217600Y-127992500D03*
%TD*%
D17*
%TO.P,R13,1*%
%TO.N,GND*%
X46634400Y-106834300D03*
%TO.P,R13,2*%
%TO.N,Net-(C24-Pad1)*%
X46634400Y-108659300D03*
%TD*%
D36*
%TO.P,SW3,1,A*%
%TO.N,GND*%
X118566000Y-149189000D03*
X112066000Y-149189000D03*
%TO.P,SW3,2,B*%
%TO.N,Net-(MOD1-IO12)*%
X118566000Y-144689000D03*
X112066000Y-144689000D03*
%TD*%
D15*
%TO.P,C17,1*%
%TO.N,Net-(C17-Pad1)*%
X112583000Y-123383000D03*
%TO.P,C17,2*%
%TO.N,/3V3*%
X112583000Y-125283000D03*
%TD*%
D11*
%TO.P,C2,1*%
%TO.N,/3V3*%
X83251000Y-131191000D03*
%TO.P,C2,2*%
%TO.N,GND*%
X85151000Y-131191000D03*
%TD*%
D14*
%TO.P,TP3,1*%
%TO.N,/CANL*%
X27559000Y-122555000D03*
%TD*%
D21*
%TO.P,C18,1*%
%TO.N,GND*%
X51562000Y-130236000D03*
%TO.P,C18,2*%
%TO.N,/5V*%
X51562000Y-128336000D03*
%TD*%
D13*
%TO.P,R8,1*%
%TO.N,GND*%
X114003500Y-108788200D03*
%TO.P,R8,2*%
%TO.N,Net-(IC1-EN)*%
X112178500Y-108788200D03*
%TD*%
D14*
%TO.P,TP4,1*%
%TO.N,GND*%
X27940000Y-133477000D03*
%TD*%
D22*
%TO.P,R11,1*%
%TO.N,/5V*%
X46329600Y-119124100D03*
%TO.P,R11,2*%
%TO.N,Net-(IC2-PG)*%
X46329600Y-117299100D03*
%TD*%
D13*
%TO.P,R4,1*%
%TO.N,Net-(C17-Pad1)*%
X112352500Y-118237000D03*
%TO.P,R4,2*%
%TO.N,Net-(IC1-FB)*%
X110527500Y-118237000D03*
%TD*%
D37*
%TO.P,D2,1,K*%
%TO.N,GND*%
X33655000Y-106123500D03*
%TO.P,D2,2,A*%
%TO.N,Net-(D2-A)*%
X33655000Y-107998500D03*
%TD*%
D34*
%TO.P,TP6,1*%
%TO.N,/5V*%
X76200000Y-120802400D03*
%TD*%
D12*
%TO.P,R1,1*%
%TO.N,Net-(D1-A)*%
X51792500Y-145796000D03*
%TO.P,R1,2*%
%TO.N,Net-(MOD1-IO2)*%
X53617500Y-145796000D03*
%TD*%
D27*
%TO.P,C12,1*%
%TO.N,/12V*%
X105979000Y-109220000D03*
%TO.P,C12,2*%
%TO.N,GND*%
X104079000Y-109220000D03*
%TD*%
D30*
%TO.P,IC1,1,PG*%
%TO.N,Net-(IC1-PG)*%
X106741000Y-116837000D03*
%TO.P,IC1,2,VIN*%
%TO.N,/12V*%
X106241000Y-116837000D03*
%TO.P,IC1,3,SW*%
%TO.N,Net-(IC1-SW)*%
X105741000Y-116837000D03*
%TO.P,IC1,4,GND*%
%TO.N,GND*%
X105241000Y-116837000D03*
%TO.P,IC1,5,BST*%
%TO.N,Net-(IC1-BST)*%
X105241000Y-118237000D03*
%TO.P,IC1,6,EN*%
%TO.N,Net-(IC1-EN)*%
X105741000Y-118237000D03*
%TO.P,IC1,7,SS*%
%TO.N,Net-(IC1-SS)*%
X106241000Y-118237000D03*
%TO.P,IC1,8,FB*%
%TO.N,Net-(IC1-FB)*%
X106741000Y-118237000D03*
%TD*%
D31*
%TO.P,J4,1,Pin_1*%
%TO.N,Net-(J4-Pin_1)*%
X42423000Y-143129000D03*
D32*
%TO.P,J4,2,Pin_2*%
%TO.N,/RX*%
X39883000Y-143129000D03*
%TO.P,J4,3,Pin_3*%
%TO.N,/TX*%
X37343000Y-143129000D03*
%TO.P,J4,4,Pin_4*%
%TO.N,unconnected-(J4-Pin_4-Pad4)*%
X34803000Y-143129000D03*
%TO.P,J4,5,Pin_5*%
%TO.N,unconnected-(J4-Pin_5-Pad5)*%
X32263000Y-143129000D03*
%TO.P,J4,6,Pin_6*%
%TO.N,GND*%
X29723000Y-143129000D03*
%TO.P,J4,7,Pin_7*%
%TO.N,Net-(J4-Pin_7)*%
X27183000Y-143129000D03*
%TD*%
D38*
%TO.N,/5V*%
X101473000Y-127762000D03*
X76161900Y-123024900D03*
X47955200Y-118770400D03*
X36982400Y-106730800D03*
X73558400Y-123596400D03*
X71882000Y-117348000D03*
%TO.N,/3V3*%
X117790000Y-125222000D03*
X84947800Y-114833400D03*
X84516000Y-107569000D03*
X97282000Y-134239000D03*
X107807800Y-111988600D03*
%TO.N,GND*%
X104394000Y-125222000D03*
X68707000Y-118364000D03*
X102235000Y-109474000D03*
X65913000Y-137160000D03*
X68580000Y-122047000D03*
X122301000Y-123063000D03*
X53594000Y-118364000D03*
X74295000Y-150368000D03*
X61087000Y-122555000D03*
X58166000Y-125476000D03*
X65024000Y-122428000D03*
X88900000Y-110744000D03*
X52832000Y-115316000D03*
X65176400Y-120345200D03*
X65405000Y-118618000D03*
X56515000Y-122428000D03*
X68707000Y-119380000D03*
X65786000Y-141097000D03*
X49733200Y-105486200D03*
X47117000Y-147447000D03*
X95123000Y-110109000D03*
X100965000Y-137922000D03*
X39751000Y-117983000D03*
X86995000Y-144272000D03*
X45720000Y-129540000D03*
X52425600Y-121310400D03*
X61087000Y-118491000D03*
X56743600Y-120700800D03*
X88646000Y-108585000D03*
X88773000Y-112903000D03*
X115316000Y-108839000D03*
X35306000Y-106045000D03*
X54737000Y-134366000D03*
X94996000Y-107442000D03*
X117094000Y-130429000D03*
X68580000Y-120650000D03*
X101981000Y-105537000D03*
X69723000Y-137033000D03*
X63627000Y-104521000D03*
X86741000Y-134874000D03*
X85725000Y-143002000D03*
X53340000Y-130175000D03*
X86741000Y-131191000D03*
X54356000Y-115824000D03*
X94869000Y-113157000D03*
X67818000Y-139065000D03*
X53594000Y-119634000D03*
X56642000Y-118491000D03*
X103378000Y-138684000D03*
X121412000Y-128905000D03*
X70154800Y-125425200D03*
X85217000Y-129413000D03*
X75438000Y-130937000D03*
X52527200Y-125628400D03*
X30480000Y-133477000D03*
X46609000Y-105410000D03*
X69850000Y-141097000D03*
X42799000Y-132207000D03*
X124079000Y-128905000D03*
X61010800Y-120446800D03*
X63855600Y-125425200D03*
X102235000Y-113157000D03*
X117475000Y-133096000D03*
X95377000Y-127762000D03*
X124587000Y-123063000D03*
X107696000Y-125222000D03*
X52425600Y-122936000D03*
%TO.N,Net-(U1-OUTP)*%
X118745000Y-129286000D03*
X125349000Y-126492000D03*
%TO.N,Net-(U1-OUTN)*%
X120269000Y-126365000D03*
X117729000Y-129286000D03*
%TO.N,/ENABLE*%
X71337000Y-133223000D03*
X52705000Y-133223000D03*
X37465000Y-133223000D03*
%TO.N,/TX*%
X41275000Y-150622000D03*
X39116000Y-150622000D03*
%TO.N,Net-(MOD1-IO12)*%
X81153000Y-129540000D03*
%TO.N,/SD_CS*%
X62865000Y-146812000D03*
%TO.N,/SD_MOSI*%
X92583000Y-138430000D03*
%TO.N,/SD_CLK*%
X99822000Y-137922000D03*
%TO.N,/SD_MISO*%
X67183000Y-146812000D03*
%TO.N,Net-(IC1-EN)*%
X105491300Y-119080300D03*
X110398600Y-108381800D03*
%TO.N,/AUDIO_LRC*%
X88265000Y-132842000D03*
X62865000Y-129413000D03*
%TO.N,/AUDIO_BCLK*%
X61595000Y-133985000D03*
X61595000Y-129540000D03*
%TO.N,Net-(IC2-EN)*%
X43992800Y-119837200D03*
X50444400Y-112014000D03*
%TD*%
D39*
%TO.N,/5V*%
X120038500Y-133499756D02*
X119384744Y-132846000D01*
D40*
X118910000Y-132346000D02*
X121334000Y-132346000D01*
D39*
X120038500Y-137668000D02*
X120038500Y-133499756D01*
D40*
X121412000Y-132268000D02*
X124079000Y-132268000D01*
D39*
X119384744Y-132846000D02*
X118910000Y-132846000D01*
X50688200Y-128270000D02*
X50713600Y-128295400D01*
X71613200Y-104609700D02*
X71524500Y-104521000D01*
D40*
X125349000Y-127762000D02*
X125984000Y-128397000D01*
X121334000Y-132346000D02*
X121412000Y-132268000D01*
D39*
X38963600Y-106732700D02*
X42963500Y-106732700D01*
D40*
X46329600Y-119124100D02*
X47601500Y-119124100D01*
D39*
X76200000Y-122986800D02*
X76200000Y-120802400D01*
X47682000Y-128270000D02*
X50688200Y-128270000D01*
X71613200Y-111404400D02*
X71613200Y-104609700D01*
X72440800Y-126746000D02*
X76161900Y-123024900D01*
X53152000Y-126746000D02*
X72440800Y-126746000D01*
X51562000Y-128336000D02*
X53152000Y-126746000D01*
D40*
X125984000Y-131699000D02*
X125415000Y-132268000D01*
X125415000Y-132268000D02*
X124079000Y-132268000D01*
X101473000Y-127762000D02*
X125349000Y-127762000D01*
D39*
X38961700Y-106730800D02*
X38963600Y-106732700D01*
X76161900Y-123024900D02*
X76200000Y-122986800D01*
D40*
X47601500Y-119124100D02*
X47955200Y-118770400D01*
D39*
X42963500Y-106732700D02*
X42976800Y-106746000D01*
X47682000Y-128270000D02*
X51129256Y-128270000D01*
D40*
X118910000Y-132346000D02*
X118910000Y-132846000D01*
D39*
X36982400Y-106730800D02*
X38961700Y-106730800D01*
D40*
X125984000Y-128397000D02*
X125984000Y-131699000D01*
D41*
%TO.N,/12V*%
X32105200Y-112878000D02*
X33655000Y-112878000D01*
X31750000Y-105029000D02*
X34036000Y-102743000D01*
X32105200Y-112878000D02*
X31750000Y-112522800D01*
X34036000Y-102743000D02*
X102992000Y-102743000D01*
D39*
X49748400Y-121869200D02*
X44905300Y-121869200D01*
D41*
X27635200Y-117348000D02*
X32105200Y-112878000D01*
D39*
X108470100Y-105537000D02*
X105786000Y-105537000D01*
D41*
X48768000Y-124587000D02*
X49748400Y-123606600D01*
D39*
X44905300Y-121869200D02*
X44854500Y-121818400D01*
D41*
X33655000Y-119761000D02*
X38481000Y-124587000D01*
X49748400Y-123606600D02*
X49748400Y-121869200D01*
X38481000Y-124587000D02*
X48768000Y-124587000D01*
X33655000Y-112878000D02*
X33655000Y-119761000D01*
X27559000Y-117348000D02*
X27635200Y-117348000D01*
X102992000Y-102743000D02*
X105786000Y-105537000D01*
X31750000Y-112522800D02*
X31750000Y-105029000D01*
D40*
%TO.N,Net-(IC1-SS)*%
X106241000Y-123182000D02*
X106241000Y-118237000D01*
X106106000Y-123317000D02*
X106241000Y-123182000D01*
%TO.N,Net-(IC1-BST)*%
X103881000Y-118237000D02*
X101661000Y-120457000D01*
X105241000Y-118237000D02*
X103881000Y-118237000D01*
%TO.N,Net-(IC1-SW)*%
X105741000Y-117437000D02*
X105591000Y-117587000D01*
X105741000Y-116837000D02*
X105741000Y-117437000D01*
X104343000Y-117587000D02*
X104328000Y-117602000D01*
X105591000Y-117587000D02*
X104343000Y-117587000D01*
D39*
%TO.N,/3V3*%
X83251000Y-131191000D02*
X83251000Y-134620000D01*
D40*
X116012000Y-125245500D02*
X112620500Y-125245500D01*
D39*
X83251000Y-134620000D02*
X74858000Y-134620000D01*
X87401000Y-127762000D02*
X87401000Y-133375000D01*
X87401000Y-120777000D02*
X87401000Y-121641000D01*
X88265000Y-134239000D02*
X97282000Y-134239000D01*
X87401000Y-121641000D02*
X83251000Y-125791000D01*
X87401000Y-133375000D02*
X88265000Y-134239000D01*
X73034000Y-132796000D02*
X73034000Y-131596000D01*
X83251000Y-127762000D02*
X83251000Y-131191000D01*
D40*
X116012000Y-125245500D02*
X117766500Y-125245500D01*
D39*
X87401000Y-120777000D02*
X87401000Y-127762000D01*
X86228000Y-120777000D02*
X87401000Y-120777000D01*
D40*
X107809700Y-111990500D02*
X107807800Y-111988600D01*
X112620500Y-125245500D02*
X112583000Y-125283000D01*
X109484200Y-111990500D02*
X107809700Y-111990500D01*
D39*
X79878000Y-127127000D02*
X86228000Y-120777000D01*
X74858000Y-134620000D02*
X73034000Y-132796000D01*
X83251000Y-125791000D02*
X83251000Y-127762000D01*
D40*
X117766500Y-125245500D02*
X117790000Y-125222000D01*
%TO.N,Net-(C17-Pad1)*%
X112583000Y-123383000D02*
X109318500Y-123383000D01*
X112583000Y-123383000D02*
X115974500Y-123383000D01*
X115974500Y-123383000D02*
X116012000Y-123420500D01*
X112352500Y-118237000D02*
X112352500Y-123152500D01*
X109318500Y-123383000D02*
X109281000Y-123420500D01*
X112352500Y-123152500D02*
X112583000Y-123383000D01*
D39*
%TO.N,Net-(IC2-BST)*%
X53187600Y-111318000D02*
X52308000Y-111318000D01*
X52308000Y-111318000D02*
X50686400Y-112939600D01*
D40*
%TO.N,GND*%
X124079000Y-130368000D02*
X124079000Y-128905000D01*
X117725000Y-134531000D02*
X117725000Y-133346000D01*
X41200700Y-118008400D02*
X39776400Y-118008400D01*
X74295000Y-150368000D02*
X74295000Y-148605000D01*
X74295000Y-148605000D02*
X74304000Y-148596000D01*
X114003500Y-108788200D02*
X115265200Y-108788200D01*
X115265200Y-108788200D02*
X115316000Y-108839000D01*
X109281000Y-125245500D02*
X107719500Y-125245500D01*
X104399000Y-125217000D02*
X104394000Y-125222000D01*
X42742000Y-132150000D02*
X42799000Y-132207000D01*
X47195500Y-147368500D02*
X47117000Y-147447000D01*
X74304000Y-131596000D02*
X74779000Y-131596000D01*
X101727000Y-138684000D02*
X100965000Y-137922000D01*
X47682000Y-129540000D02*
X45720000Y-129540000D01*
X85151000Y-131191000D02*
X86741000Y-131191000D01*
X47195500Y-145796000D02*
X47195500Y-147368500D01*
X85151000Y-129347000D02*
X85217000Y-129413000D01*
X117225000Y-131661000D02*
X117225000Y-132846000D01*
X117225000Y-132846000D02*
X117475000Y-133096000D01*
X56794000Y-134381000D02*
X54752000Y-134381000D01*
X116040000Y-133346000D02*
X117225000Y-133346000D01*
D41*
X27940000Y-133477000D02*
X30480000Y-133477000D01*
D40*
X42742000Y-130810000D02*
X42742000Y-132150000D01*
X121412000Y-130368000D02*
X121412000Y-128905000D01*
X103378000Y-138684000D02*
X101727000Y-138684000D01*
X117225000Y-134531000D02*
X117225000Y-133346000D01*
D41*
X51562000Y-130236000D02*
X53279000Y-130236000D01*
D40*
X65102500Y-104521000D02*
X63627000Y-104521000D01*
X117725000Y-133346000D02*
X117475000Y-133096000D01*
X85151000Y-134620000D02*
X86487000Y-134620000D01*
X122235000Y-124714000D02*
X122235000Y-123129000D01*
X85151000Y-127762000D02*
X85151000Y-129347000D01*
X46634400Y-105435400D02*
X46609000Y-105410000D01*
X124653000Y-124714000D02*
X124653000Y-123129000D01*
X93950000Y-127762000D02*
X95377000Y-127762000D01*
X107719500Y-125245500D02*
X107696000Y-125222000D01*
D39*
X85725000Y-143002000D02*
X86995000Y-144272000D01*
D40*
X74779000Y-131596000D02*
X75438000Y-130937000D01*
X117225000Y-131661000D02*
X117225000Y-130560000D01*
X49733200Y-105486200D02*
X49733200Y-106898400D01*
X106106000Y-125217000D02*
X104399000Y-125217000D01*
X86487000Y-134620000D02*
X86741000Y-134874000D01*
X117225000Y-130560000D02*
X117094000Y-130429000D01*
X117225000Y-133346000D02*
X117475000Y-133096000D01*
X124653000Y-123129000D02*
X124587000Y-123063000D01*
X46634400Y-106834300D02*
X46634400Y-105435400D01*
X54752000Y-134381000D02*
X54737000Y-134366000D01*
X33655000Y-106123500D02*
X35227500Y-106123500D01*
X122235000Y-123129000D02*
X122301000Y-123063000D01*
D41*
X53279000Y-130236000D02*
X53340000Y-130175000D01*
D40*
X39776400Y-118008400D02*
X39751000Y-117983000D01*
X35227500Y-106123500D02*
X35306000Y-106045000D01*
D39*
%TO.N,Net-(U1-OUTP)*%
X122622500Y-114270000D02*
X121722500Y-114270000D01*
X126111000Y-126492000D02*
X126553000Y-126050000D01*
X125349000Y-126492000D02*
X126111000Y-126492000D01*
X126553000Y-118200500D02*
X122622500Y-114270000D01*
X118225000Y-129806000D02*
X118745000Y-129286000D01*
X126553000Y-126050000D02*
X126553000Y-124714000D01*
X126553000Y-124714000D02*
X126553000Y-118200500D01*
X118225000Y-131661000D02*
X118225000Y-129806000D01*
%TO.N,Net-(U1-OUTN)*%
X120335000Y-124714000D02*
X120335000Y-121981000D01*
X120269000Y-124780000D02*
X120335000Y-124714000D01*
X117725000Y-131661000D02*
X117725000Y-129290000D01*
X123046000Y-119270000D02*
X125222500Y-119270000D01*
X120269000Y-126365000D02*
X120269000Y-124780000D01*
X120335000Y-121981000D02*
X123046000Y-119270000D01*
X117725000Y-129290000D02*
X117729000Y-129286000D01*
%TO.N,Net-(J4-Pin_1)*%
X42423000Y-143129000D02*
X42423000Y-147386000D01*
X42423000Y-147386000D02*
X42484000Y-147447000D01*
%TO.N,/IO_0*%
X45533000Y-148596000D02*
X44384000Y-147447000D01*
X57794000Y-148596000D02*
X45533000Y-148596000D01*
%TO.N,Net-(J4-Pin_7)*%
X27244000Y-143068000D02*
X27183000Y-143129000D01*
X27244000Y-136525000D02*
X27244000Y-143068000D01*
%TO.N,/ENABLE*%
X71337000Y-133223000D02*
X52705000Y-133223000D01*
X34163000Y-136525000D02*
X37465000Y-133223000D01*
X29144000Y-136525000D02*
X34163000Y-136525000D01*
X71764000Y-132796000D02*
X71337000Y-133223000D01*
X71764000Y-131596000D02*
X71764000Y-132796000D01*
%TO.N,Net-(D1-A)*%
X51792500Y-145796000D02*
X49070500Y-145796000D01*
%TO.N,/RX*%
X39883000Y-143129000D02*
X39883000Y-150627000D01*
X40894000Y-151638000D02*
X69723000Y-151638000D01*
X70494000Y-150867000D02*
X70494000Y-148596000D01*
X69723000Y-151638000D02*
X70494000Y-150867000D01*
X39883000Y-150627000D02*
X40894000Y-151638000D01*
%TO.N,/TX*%
X39116000Y-150622000D02*
X38100000Y-150622000D01*
X68707000Y-150622000D02*
X41275000Y-150622000D01*
X37338000Y-143134000D02*
X37343000Y-143129000D01*
X37338000Y-149860000D02*
X37338000Y-143134000D01*
X69224000Y-150105000D02*
X68707000Y-150622000D01*
X38100000Y-150622000D02*
X37338000Y-149860000D01*
X69224000Y-148596000D02*
X69224000Y-150105000D01*
%TO.N,Net-(IC2-SW)*%
X51111400Y-113538000D02*
X52867600Y-113538000D01*
X50186400Y-113814600D02*
X50461400Y-113539600D01*
X50461400Y-113539600D02*
X51109800Y-113539600D01*
X51109800Y-113539600D02*
X51111400Y-113538000D01*
X50186400Y-114339600D02*
X50186400Y-113814600D01*
X52867600Y-113538000D02*
X53187600Y-113218000D01*
%TO.N,Net-(MOD1-IO2)*%
X56794000Y-145811000D02*
X53632500Y-145811000D01*
X53632500Y-145811000D02*
X53617500Y-145796000D01*
%TO.N,Net-(U1-SD_MODE)*%
X118225000Y-134531000D02*
X118225000Y-137656500D01*
X118225000Y-137656500D02*
X118213500Y-137668000D01*
%TO.N,Net-(MOD1-IO12)*%
X57794000Y-129785000D02*
X57794000Y-131596000D01*
X58766000Y-128813000D02*
X57794000Y-129785000D01*
X118566000Y-144689000D02*
X112066000Y-144689000D01*
X65532000Y-129540000D02*
X64805000Y-128813000D01*
X64805000Y-128813000D02*
X58766000Y-128813000D01*
X81153000Y-129540000D02*
X65532000Y-129540000D01*
%TO.N,/SD_CS*%
X62865000Y-148587000D02*
X62874000Y-148596000D01*
X62865000Y-146812000D02*
X62865000Y-148587000D01*
%TO.N,/SD_MOSI*%
X90805000Y-140208000D02*
X80222000Y-140208000D01*
X80222000Y-140208000D02*
X73034000Y-147396000D01*
X92583000Y-138430000D02*
X90805000Y-140208000D01*
X73034000Y-147396000D02*
X73034000Y-148596000D01*
%TO.N,/SD_CLK*%
X99695000Y-137795000D02*
X99822000Y-137922000D01*
X73279000Y-146050000D02*
X81534000Y-137795000D01*
X81534000Y-137795000D02*
X99695000Y-137795000D01*
X64897000Y-146050000D02*
X73279000Y-146050000D01*
X64144000Y-146803000D02*
X64897000Y-146050000D01*
X64144000Y-148596000D02*
X64144000Y-146803000D01*
%TO.N,/SD_MISO*%
X65414000Y-147396000D02*
X65414000Y-148596000D01*
X67183000Y-146812000D02*
X65998000Y-146812000D01*
X65998000Y-146812000D02*
X65414000Y-147396000D01*
%TO.N,Net-(C24-Pad1)*%
X38963600Y-108557700D02*
X42888500Y-108557700D01*
X42976800Y-108646000D02*
X46621100Y-108646000D01*
X42976800Y-108646000D02*
X42976800Y-109397800D01*
X42976800Y-109397800D02*
X43434000Y-109855000D01*
X42888500Y-108557700D02*
X42976800Y-108646000D01*
X43434000Y-109855000D02*
X43434000Y-112877600D01*
X46621100Y-108646000D02*
X46634400Y-108659300D01*
%TO.N,Net-(IC2-SS)*%
X49686400Y-112939600D02*
X49686400Y-108845200D01*
X49686400Y-108845200D02*
X49733200Y-108798400D01*
%TO.N,Net-(D2-A)*%
X33655000Y-111053000D02*
X33655000Y-107998500D01*
%TO.N,Net-(D3-A)*%
X69699500Y-104521000D02*
X66977500Y-104521000D01*
%TO.N,Net-(D4-A)*%
X89226000Y-127762000D02*
X92075000Y-127762000D01*
D40*
%TO.N,Net-(IC1-PG)*%
X106741000Y-116837000D02*
X106741000Y-116558700D01*
X106741000Y-116558700D02*
X109484200Y-113815500D01*
D39*
%TO.N,Net-(IC1-EN)*%
X112176600Y-108790100D02*
X112178500Y-108788200D01*
X105491300Y-119080300D02*
X105741000Y-118830600D01*
X110983750Y-107796650D02*
X110983750Y-107593450D01*
X110983750Y-107593450D02*
X112178500Y-108788200D01*
X110295100Y-105537000D02*
X110295100Y-106904800D01*
X110295100Y-106904800D02*
X110983750Y-107593450D01*
X105741000Y-118830600D02*
X105741000Y-118237000D01*
X110398600Y-108381800D02*
X110983750Y-107796650D01*
%TO.N,/AUDIO_LRC*%
X62865000Y-129413000D02*
X62874000Y-129422000D01*
X116040000Y-132846000D02*
X88269000Y-132846000D01*
X88269000Y-132846000D02*
X88265000Y-132842000D01*
X62874000Y-129422000D02*
X62874000Y-131596000D01*
%TO.N,/AUDIO_BCLK*%
X114241000Y-135645000D02*
X63255000Y-135645000D01*
X63255000Y-135645000D02*
X61595000Y-133985000D01*
X116040000Y-133846000D02*
X114241000Y-135645000D01*
X61595000Y-129540000D02*
X61604000Y-129549000D01*
X61604000Y-129549000D02*
X61604000Y-131596000D01*
%TO.N,/AUDIO_DIN*%
X102489000Y-151003000D02*
X116725000Y-136767000D01*
X116725000Y-136767000D02*
X116725000Y-134531000D01*
X71764000Y-150504000D02*
X72263000Y-151003000D01*
X71764000Y-148596000D02*
X71764000Y-150504000D01*
X72263000Y-151003000D02*
X102489000Y-151003000D01*
D40*
%TO.N,Net-(IC1-FB)*%
X106741000Y-118237000D02*
X110527500Y-118237000D01*
%TO.N,Net-(IC2-PG)*%
X49186400Y-114339600D02*
X46329600Y-117196400D01*
X46329600Y-117196400D02*
X46329600Y-117299100D01*
D39*
%TO.N,Net-(IC2-EN)*%
X50186400Y-112272000D02*
X50186400Y-112939600D01*
X50444400Y-112014000D02*
X50186400Y-112272000D01*
X43025700Y-118008400D02*
X43025700Y-119837200D01*
X43025700Y-119837200D02*
X43992800Y-119837200D01*
X43025700Y-121814600D02*
X43029500Y-121818400D01*
X43025700Y-119837200D02*
X43025700Y-121814600D01*
%TO.N,Net-(IC2-FB)*%
X45259000Y-112877600D02*
X49124400Y-112877600D01*
X49124400Y-112877600D02*
X49186400Y-112939600D01*
%TO.N,/CTX*%
X46697001Y-127000000D02*
X46397000Y-127300001D01*
X46397000Y-127300001D02*
X46397000Y-128652410D01*
X48967000Y-129157590D02*
X48967000Y-135581000D01*
X46397000Y-128652410D02*
X46649590Y-128905000D01*
X47682000Y-127000000D02*
X46697001Y-127000000D01*
X46649590Y-128905000D02*
X48714410Y-128905000D01*
X48714410Y-128905000D02*
X48967000Y-129157590D01*
X55387000Y-142001000D02*
X56794000Y-142001000D01*
X48967000Y-135581000D02*
X55387000Y-142001000D01*
%TO.N,/CRX*%
X47682000Y-130810000D02*
X48006000Y-131134000D01*
X55133000Y-143271000D02*
X56794000Y-143271000D01*
X48006000Y-136144000D02*
X55133000Y-143271000D01*
X48006000Y-131134000D02*
X48006000Y-136144000D01*
D41*
%TO.N,/CANH*%
X27889200Y-128117600D02*
X37517700Y-128117600D01*
D39*
X39217600Y-129817500D02*
X42464500Y-129817500D01*
X42464500Y-129817500D02*
X42742000Y-129540000D01*
D41*
X37517700Y-128117600D02*
X39217600Y-129817500D01*
D39*
%TO.N,/CANL*%
X39217600Y-127992500D02*
X42464500Y-127992500D01*
D41*
X33780100Y-122555000D02*
X39217600Y-127992500D01*
D39*
X39217600Y-127992500D02*
X39217600Y-127990600D01*
X42464500Y-127992500D02*
X42742000Y-128270000D01*
D41*
X27559000Y-122555000D02*
X33780100Y-122555000D01*
%TD*%
%TA.AperFunction,Conductor*%
%TO.N,/5V*%
G36*
X73025265Y-108710349D02*
G01*
X73091861Y-108731486D01*
X73134230Y-108780393D01*
X77408366Y-117630367D01*
X77420529Y-117677677D01*
X77767461Y-124170270D01*
X77751382Y-124238265D01*
X77701095Y-124286772D01*
X77637446Y-124300732D01*
X71784541Y-124008087D01*
X71718568Y-123985079D01*
X71675507Y-123930057D01*
X71667448Y-123897537D01*
X71089539Y-118538746D01*
X71088972Y-118531503D01*
X71075587Y-118255418D01*
X71071302Y-118219604D01*
X71064716Y-118185310D01*
X71062923Y-118176764D01*
X71054529Y-118157980D01*
X71044454Y-118120684D01*
X70562121Y-113648144D01*
X70561465Y-113631016D01*
X70711406Y-108782938D01*
X70733154Y-108716539D01*
X70787347Y-108672438D01*
X70838037Y-108662800D01*
X73025265Y-108710349D01*
G37*
%TD.AperFunction*%
%TD*%
%TA.AperFunction,Conductor*%
%TO.N,/3V3*%
G36*
X85419638Y-106799160D02*
G01*
X85485143Y-106823462D01*
X85527112Y-106879323D01*
X85534963Y-106919597D01*
X85786000Y-116459000D01*
X88774148Y-118326593D01*
X88820564Y-118378816D01*
X88832396Y-118434561D01*
X88709114Y-123858978D01*
X88687911Y-123925553D01*
X88634081Y-123970097D01*
X88617096Y-123975974D01*
X84982442Y-124945215D01*
X84912594Y-124943469D01*
X84854779Y-124904237D01*
X84847630Y-124894651D01*
X80471928Y-118393608D01*
X80450861Y-118328325D01*
X80391202Y-116459000D01*
X80075378Y-106563204D01*
X80092914Y-106495575D01*
X80144232Y-106448159D01*
X80207943Y-106435554D01*
X85419638Y-106799160D01*
G37*
%TD.AperFunction*%
%TD*%
%TA.AperFunction,Conductor*%
%TO.N,/12V*%
G36*
X49741608Y-114385255D02*
G01*
X49793085Y-114432498D01*
X49810900Y-114496534D01*
X49810900Y-114664278D01*
X49825432Y-114737335D01*
X49825433Y-114737339D01*
X49825434Y-114737340D01*
X49880799Y-114820201D01*
X49880800Y-114820201D01*
X49887585Y-114830356D01*
X49884721Y-114832269D01*
X49908407Y-114875647D01*
X49909466Y-114881098D01*
X50442841Y-117999288D01*
X50444590Y-118017639D01*
X50543320Y-122806068D01*
X50525021Y-122873499D01*
X50473172Y-122920333D01*
X50416084Y-122932581D01*
X48740849Y-122888496D01*
X48674351Y-122867055D01*
X48630001Y-122813065D01*
X48620194Y-122759995D01*
X48818374Y-117359600D01*
X48821375Y-117336669D01*
X49364679Y-114946130D01*
X49398730Y-114885123D01*
X49416697Y-114870516D01*
X49492001Y-114820201D01*
X49547366Y-114737340D01*
X49561900Y-114664274D01*
X49561900Y-114499612D01*
X49567968Y-114461297D01*
X49568968Y-114458219D01*
X49608404Y-114400543D01*
X49672761Y-114373343D01*
X49741608Y-114385255D01*
G37*
%TD.AperFunction*%
%TD*%
%TA.AperFunction,Conductor*%
%TO.N,GND*%
G36*
X50880260Y-114003943D02*
G01*
X61976000Y-117297200D01*
X70708590Y-118150384D01*
X70773397Y-118176494D01*
X70813801Y-118233497D01*
X70820387Y-118267791D01*
X71208155Y-126265495D01*
X71191740Y-126333409D01*
X71141213Y-126381667D01*
X71084300Y-126395500D01*
X53201212Y-126395500D01*
X53175766Y-126392861D01*
X53166686Y-126390957D01*
X53166685Y-126390957D01*
X53166684Y-126390957D01*
X53137878Y-126394548D01*
X53124199Y-126395397D01*
X53122962Y-126395499D01*
X53103996Y-126398664D01*
X53098929Y-126399402D01*
X53050611Y-126405425D01*
X53043566Y-126407522D01*
X53036617Y-126409908D01*
X52993804Y-126433077D01*
X52989252Y-126435420D01*
X52945517Y-126456801D01*
X52939515Y-126461085D01*
X52933743Y-126465579D01*
X52900769Y-126501398D01*
X52897222Y-126505095D01*
X52708904Y-126693412D01*
X52647581Y-126726897D01*
X52622469Y-126729725D01*
X51126524Y-126744760D01*
X51059290Y-126725750D01*
X51013007Y-126673408D01*
X51001293Y-126622683D01*
X50995769Y-126265495D01*
X50850800Y-116890800D01*
X50559847Y-114708654D01*
X50561144Y-114668070D01*
X50561900Y-114664274D01*
X50561900Y-114435527D01*
X50562409Y-114424301D01*
X50588417Y-114138205D01*
X50614090Y-114073225D01*
X50670820Y-114032438D01*
X50687576Y-114027844D01*
X50820664Y-114001227D01*
X50880260Y-114003943D01*
G37*
%TD.AperFunction*%
%TD*%
%TA.AperFunction,Conductor*%
%TO.N,Net-(IC1-SW)*%
G36*
X105006501Y-117369439D02*
G01*
X105006977Y-117368293D01*
X105014098Y-117371242D01*
X105015696Y-117371622D01*
X105017078Y-117372477D01*
X105018259Y-117372966D01*
X105069707Y-117383200D01*
X105131617Y-117415585D01*
X105148689Y-117436034D01*
X105187222Y-117493833D01*
X105208030Y-117560532D01*
X105189475Y-117627893D01*
X105137448Y-117674529D01*
X105096209Y-117686018D01*
X105091327Y-117686499D01*
X105018264Y-117701032D01*
X105018260Y-117701033D01*
X104950678Y-117746190D01*
X104892086Y-117766659D01*
X104059136Y-117836072D01*
X104048838Y-117836500D01*
X103817567Y-117836500D01*
X103796491Y-117843347D01*
X103777582Y-117847887D01*
X103755696Y-117851354D01*
X103735955Y-117861412D01*
X103717987Y-117868854D01*
X103696912Y-117875702D01*
X103696909Y-117875704D01*
X103678984Y-117888727D01*
X103662399Y-117898890D01*
X103642659Y-117908948D01*
X103631376Y-117920232D01*
X103620091Y-117931517D01*
X103509091Y-118042517D01*
X103140219Y-118411387D01*
X103131060Y-118419676D01*
X102425663Y-118996820D01*
X102420198Y-119001042D01*
X101485362Y-119682693D01*
X101419596Y-119706285D01*
X101412305Y-119706500D01*
X101138130Y-119706500D01*
X101138123Y-119706501D01*
X101078516Y-119712908D01*
X100943671Y-119763202D01*
X100943664Y-119763206D01*
X100828455Y-119849452D01*
X100828452Y-119849455D01*
X100742206Y-119964664D01*
X100742202Y-119964671D01*
X100691908Y-120099517D01*
X100685501Y-120159116D01*
X100685500Y-120159135D01*
X100685500Y-120202878D01*
X100665815Y-120269917D01*
X100634557Y-120303071D01*
X96355446Y-123423258D01*
X96291899Y-123446700D01*
X94809510Y-123560730D01*
X94741159Y-123546245D01*
X94691489Y-123497106D01*
X94676000Y-123437095D01*
X94676000Y-118109556D01*
X94695685Y-118042517D01*
X94748489Y-117996762D01*
X94802528Y-117985582D01*
X100028074Y-118092226D01*
X100898998Y-118110000D01*
X100898998Y-118109999D01*
X100899000Y-118110000D01*
X102659926Y-117481097D01*
X102695102Y-117474047D01*
X104947717Y-117355488D01*
X105006501Y-117369439D01*
G37*
%TD.AperFunction*%
%TD*%
%TA.AperFunction,Conductor*%
%TO.N,GND*%
G36*
X103950863Y-104413685D02*
G01*
X103971505Y-104430319D01*
X104554737Y-105013551D01*
X104588222Y-105074874D01*
X104591046Y-105099642D01*
X104708999Y-114299997D01*
X104709000Y-114300000D01*
X105388886Y-116339660D01*
X105391411Y-116409484D01*
X105383414Y-116427441D01*
X105384707Y-116427977D01*
X105380033Y-116439259D01*
X105365500Y-116512323D01*
X105365500Y-116662012D01*
X105355989Y-116701638D01*
X105358370Y-116702412D01*
X105355353Y-116711697D01*
X105340500Y-116805475D01*
X105340500Y-117035320D01*
X105320815Y-117102359D01*
X105268011Y-117148114D01*
X105198853Y-117158058D01*
X105175247Y-117152257D01*
X105119551Y-117132609D01*
X105094089Y-117127543D01*
X105089653Y-117126576D01*
X105074286Y-117122929D01*
X105074234Y-117122917D01*
X105023503Y-117110854D01*
X105023273Y-117110822D01*
X105006715Y-117106893D01*
X105006711Y-117106892D01*
X104944561Y-117101270D01*
X104885335Y-117079852D01*
X104487488Y-116805475D01*
X101407000Y-114681000D01*
X86339650Y-113927632D01*
X86273677Y-113904624D01*
X86230616Y-113849602D01*
X86221886Y-113807056D01*
X86076895Y-108297397D01*
X86094809Y-108229866D01*
X86146391Y-108182738D01*
X86172954Y-108173318D01*
X102392618Y-104430319D01*
X102536242Y-104397175D01*
X102564125Y-104394000D01*
X103883824Y-104394000D01*
X103950863Y-104413685D01*
G37*
%TD.AperFunction*%
%TD*%
%TA.AperFunction,Conductor*%
%TO.N,Net-(IC2-SW)*%
G36*
X64305722Y-108579508D02*
G01*
X64353055Y-108630902D01*
X64365853Y-108683552D01*
X64462774Y-114014213D01*
X64444311Y-114081599D01*
X64392347Y-114128306D01*
X64331991Y-114140280D01*
X55219614Y-113639600D01*
X55219592Y-113639599D01*
X51005933Y-113684908D01*
X50938686Y-113665945D01*
X50892366Y-113613636D01*
X50881679Y-113544589D01*
X50910019Y-113480725D01*
X50935706Y-113457815D01*
X50992001Y-113420201D01*
X51047366Y-113337340D01*
X51052340Y-113312333D01*
X51084723Y-113250425D01*
X51130969Y-113220215D01*
X52869491Y-112577718D01*
X52896869Y-112571016D01*
X56489600Y-112115600D01*
X62609585Y-108625690D01*
X62667253Y-108609465D01*
X64238117Y-108561863D01*
X64305722Y-108579508D01*
G37*
%TD.AperFunction*%
%TD*%
%TA.AperFunction,Conductor*%
%TO.N,/12V*%
G36*
X106700191Y-104539907D02*
G01*
X106736155Y-104589407D01*
X106741000Y-104620000D01*
X106741000Y-116022009D01*
X106722093Y-116080200D01*
X106712003Y-116092013D01*
X106526117Y-116277898D01*
X106510265Y-116290771D01*
X106500335Y-116297259D01*
X106500332Y-116297261D01*
X106481548Y-116321395D01*
X106473437Y-116330580D01*
X106472627Y-116331389D01*
X106472619Y-116331398D01*
X106461133Y-116347486D01*
X106458690Y-116350763D01*
X106428482Y-116389574D01*
X106424981Y-116396043D01*
X106421759Y-116402634D01*
X106407718Y-116449796D01*
X106406470Y-116453690D01*
X106390500Y-116500210D01*
X106389293Y-116507443D01*
X106388383Y-116514747D01*
X106390415Y-116563875D01*
X106390500Y-116567966D01*
X106390500Y-116866040D01*
X106404555Y-116950269D01*
X106397901Y-117005560D01*
X106385715Y-117033996D01*
X106345416Y-117080034D01*
X106294719Y-117094000D01*
X106205000Y-117094000D01*
X106146809Y-117075093D01*
X106110845Y-117025593D01*
X106106000Y-116995000D01*
X106106000Y-115824000D01*
X105100452Y-113812904D01*
X105090000Y-113768630D01*
X105090000Y-104620000D01*
X105108907Y-104561809D01*
X105158407Y-104525845D01*
X105189000Y-104521000D01*
X106642000Y-104521000D01*
X106700191Y-104539907D01*
G37*
%TD.AperFunction*%
%TD*%
M02*
