%TF.GenerationSoftware,KiCad,Pcbnew,7.0.11*%
%TF.CreationDate,2025-02-02T20:15:26+02:00*%
%TF.ProjectId,obd_xp,6f62645f-7870-42e6-9b69-6361645f7063,rev?*%
%TF.SameCoordinates,Original*%
%TF.FileFunction,Copper,L2,Bot*%
%TF.FilePolarity,Positive*%
%FSLAX46Y46*%
G04 Gerber Fmt 4.6, Leading zero omitted, Abs format (unit mm)*
G04 Created by KiCad (PCBNEW 7.0.11) date 2025-02-02 20:15:26*
%MOMM*%
%LPD*%
G01*
G04 APERTURE LIST*
%TA.AperFunction,ComponentPad*%
%ADD10R,1.800000X1.800000*%
%TD*%
%TA.AperFunction,ComponentPad*%
%ADD11C,1.800000*%
%TD*%
%TA.AperFunction,ComponentPad*%
%ADD12R,1.700000X1.700000*%
%TD*%
%TA.AperFunction,ComponentPad*%
%ADD13O,1.700000X1.700000*%
%TD*%
%TA.AperFunction,ComponentPad*%
%ADD14C,2.000000*%
%TD*%
%TA.AperFunction,SMDPad,CuDef*%
%ADD15R,0.620000X1.400000*%
%TD*%
%TA.AperFunction,SMDPad,CuDef*%
%ADD16R,1.100000X2.400000*%
%TD*%
%TA.AperFunction,ViaPad*%
%ADD17C,0.600000*%
%TD*%
%TA.AperFunction,Conductor*%
%ADD18C,0.500000*%
%TD*%
%TA.AperFunction,Conductor*%
%ADD19C,0.300000*%
%TD*%
%TA.AperFunction,Conductor*%
%ADD20C,0.200000*%
%TD*%
G04 APERTURE END LIST*
D10*
%TO.P,J3,1,1*%
%TO.N,Net-(U1-OUTN)*%
X125222500Y-119270000D03*
D11*
%TO.P,J3,2,2*%
%TO.N,Net-(U1-OUTP)*%
X121722500Y-114270000D03*
%TD*%
D12*
%TO.P,J1,1,Pin_1*%
%TO.N,/ENABLE*%
X77338000Y-127127000D03*
D13*
%TO.P,J1,2,Pin_2*%
%TO.N,/3V3*%
X79878000Y-127127000D03*
%TD*%
D14*
%TO.P,SW3,1,A*%
%TO.N,GND*%
X118566000Y-149189000D03*
X112066000Y-149189000D03*
%TO.P,SW3,2,B*%
%TO.N,Net-(MOD1-IO12)*%
X118566000Y-144689000D03*
X112066000Y-144689000D03*
%TD*%
D15*
%TO.P,J2,P1,DAT2*%
%TO.N,unconnected-(J2-DAT2-PadP1)*%
X95464000Y-136408000D03*
%TO.P,J2,P2,CD/DAT3*%
%TO.N,/SD_CS*%
X96564000Y-136408000D03*
%TO.P,J2,P3,CMD*%
%TO.N,/SD_MOSI*%
X97664000Y-136408000D03*
%TO.P,J2,P4,VDD*%
%TO.N,/3V3*%
X98764000Y-136408000D03*
%TO.P,J2,P5,CLK*%
%TO.N,/SD_CLK*%
X99864000Y-136408000D03*
%TO.P,J2,P6,VSS*%
%TO.N,GND*%
X100964000Y-136408000D03*
%TO.P,J2,P7,DAT0*%
%TO.N,/SD_MISO*%
X102064000Y-136408000D03*
%TO.P,J2,P8,DAT1*%
%TO.N,unconnected-(J2-DAT1-PadP8)*%
X103164000Y-136408000D03*
%TO.P,J2,P9,CD*%
%TO.N,unconnected-(J2-CD-PadP9)*%
X104264000Y-136408000D03*
D16*
%TO.P,J2,SH1,SHIELD*%
%TO.N,GND*%
X105644000Y-147408000D03*
%TO.P,J2,SH2,SHIELD*%
X105644000Y-138408000D03*
%TO.P,J2,SH3,SHIELD*%
X89494000Y-138408000D03*
%TO.P,J2,SH4,SHIELD*%
X89494000Y-147408000D03*
%TD*%
D12*
%TO.P,J4,1,Pin_1*%
%TO.N,Net-(J4-Pin_1)*%
X42423000Y-143129000D03*
D13*
%TO.P,J4,2,Pin_2*%
%TO.N,/RX*%
X39883000Y-143129000D03*
%TO.P,J4,3,Pin_3*%
%TO.N,/TX*%
X37343000Y-143129000D03*
%TO.P,J4,4,Pin_4*%
%TO.N,unconnected-(J4-Pin_4-Pad4)*%
X34803000Y-143129000D03*
%TO.P,J4,5,Pin_5*%
%TO.N,unconnected-(J4-Pin_5-Pad5)*%
X32263000Y-143129000D03*
%TO.P,J4,6,Pin_6*%
%TO.N,GND*%
X29723000Y-143129000D03*
%TO.P,J4,7,Pin_7*%
%TO.N,Net-(J4-Pin_7)*%
X27183000Y-143129000D03*
%TD*%
D17*
%TO.N,/5V*%
X101473000Y-127762000D03*
X76161900Y-123024900D03*
X47955200Y-118770400D03*
X36982400Y-106730800D03*
X73558400Y-123596400D03*
X71882000Y-117348000D03*
%TO.N,/3V3*%
X117790000Y-125222000D03*
X84947800Y-114833400D03*
X84516000Y-107569000D03*
X97282000Y-134239000D03*
X107807800Y-111988600D03*
%TO.N,GND*%
X104394000Y-125222000D03*
X68707000Y-118364000D03*
X102235000Y-109474000D03*
X65913000Y-137160000D03*
X68580000Y-122047000D03*
X122301000Y-123063000D03*
X53594000Y-118364000D03*
X74295000Y-150368000D03*
X61087000Y-122555000D03*
X58166000Y-125476000D03*
X65024000Y-122428000D03*
X88900000Y-110744000D03*
X52832000Y-115316000D03*
X65176400Y-120345200D03*
X65405000Y-118618000D03*
X56515000Y-122428000D03*
X68707000Y-119380000D03*
X65786000Y-141097000D03*
X49733200Y-105486200D03*
X47117000Y-147447000D03*
X95123000Y-110109000D03*
X100965000Y-137922000D03*
X39751000Y-117983000D03*
X86995000Y-144272000D03*
X45720000Y-129540000D03*
X52425600Y-121310400D03*
X61087000Y-118491000D03*
X56743600Y-120700800D03*
X88646000Y-108585000D03*
X88773000Y-112903000D03*
X115316000Y-108839000D03*
X35306000Y-106045000D03*
X54737000Y-134366000D03*
X94996000Y-107442000D03*
X117094000Y-130429000D03*
X68580000Y-120650000D03*
X101981000Y-105537000D03*
X69723000Y-137033000D03*
X63627000Y-104521000D03*
X86741000Y-134874000D03*
X85725000Y-143002000D03*
X53340000Y-130175000D03*
X86741000Y-131191000D03*
X54356000Y-115824000D03*
X94869000Y-113157000D03*
X67818000Y-139065000D03*
X53594000Y-119634000D03*
X56642000Y-118491000D03*
X103378000Y-138684000D03*
X121412000Y-128905000D03*
X70154800Y-125425200D03*
X85217000Y-129413000D03*
X75438000Y-130937000D03*
X52527200Y-125628400D03*
X30480000Y-133477000D03*
X46609000Y-105410000D03*
X69850000Y-141097000D03*
X42799000Y-132207000D03*
X124079000Y-128905000D03*
X61010800Y-120446800D03*
X63855600Y-125425200D03*
X102235000Y-113157000D03*
X117475000Y-133096000D03*
X95377000Y-127762000D03*
X124587000Y-123063000D03*
X107696000Y-125222000D03*
X52425600Y-122936000D03*
%TO.N,Net-(U1-OUTP)*%
X118745000Y-129286000D03*
X125349000Y-126492000D03*
%TO.N,Net-(U1-OUTN)*%
X120269000Y-126365000D03*
X117729000Y-129286000D03*
%TO.N,/ENABLE*%
X71337000Y-133223000D03*
X52705000Y-133223000D03*
X37465000Y-133223000D03*
%TO.N,/TX*%
X41275000Y-150622000D03*
X39116000Y-150622000D03*
%TO.N,Net-(MOD1-IO12)*%
X81153000Y-129540000D03*
%TO.N,/SD_CS*%
X62865000Y-146812000D03*
%TO.N,/SD_MOSI*%
X92583000Y-138430000D03*
%TO.N,/SD_CLK*%
X99822000Y-137922000D03*
%TO.N,/SD_MISO*%
X67183000Y-146812000D03*
%TO.N,Net-(IC1-EN)*%
X105491300Y-119080300D03*
X110398600Y-108381800D03*
%TO.N,/AUDIO_LRC*%
X88265000Y-132842000D03*
X62865000Y-129413000D03*
%TO.N,/AUDIO_BCLK*%
X61595000Y-133985000D03*
X61595000Y-129540000D03*
%TO.N,Net-(IC2-EN)*%
X43992800Y-119837200D03*
X50444400Y-112014000D03*
%TD*%
D18*
%TO.N,/5V*%
X69189600Y-124561600D02*
X39573200Y-124561600D01*
X73558400Y-123596400D02*
X72593200Y-124561600D01*
D19*
X100076000Y-126365000D02*
X85090000Y-126365000D01*
X85090000Y-126365000D02*
X81749900Y-123024900D01*
X101473000Y-127762000D02*
X100076000Y-126365000D01*
X49377600Y-117348000D02*
X71882000Y-117348000D01*
D18*
X39573200Y-124561600D02*
X36982400Y-121970800D01*
X72593200Y-124561600D02*
X69189600Y-124561600D01*
D19*
X47955200Y-118770400D02*
X49377600Y-117348000D01*
D18*
X36982400Y-121970800D02*
X36982400Y-106730800D01*
D19*
X81749900Y-123024900D02*
X76161900Y-123024900D01*
D20*
%TO.N,/3V3*%
X97282000Y-134239000D02*
X98044000Y-134239000D01*
D18*
X114132400Y-103657400D02*
X117790000Y-107315000D01*
D20*
X98764000Y-134959000D02*
X98764000Y-136408000D01*
D18*
X117790000Y-107315000D02*
X117790000Y-125222000D01*
X84516000Y-107569000D02*
X86167000Y-107569000D01*
D19*
X107807800Y-111988600D02*
X104963000Y-114833400D01*
X104963000Y-114833400D02*
X84947800Y-114833400D01*
D18*
X86167000Y-107569000D02*
X90078600Y-103657400D01*
X90078600Y-103657400D02*
X114132400Y-103657400D01*
D20*
X98044000Y-134239000D02*
X98764000Y-134959000D01*
D19*
%TO.N,GND*%
X100965000Y-136409000D02*
X100964000Y-136408000D01*
X100965000Y-137922000D02*
X100965000Y-136409000D01*
D20*
%TO.N,Net-(U1-OUTP)*%
X121539000Y-126492000D02*
X125349000Y-126492000D01*
X118745000Y-129286000D02*
X121539000Y-126492000D01*
%TO.N,Net-(U1-OUTN)*%
X117729000Y-129286000D02*
X117729000Y-128905000D01*
X117729000Y-128905000D02*
X120269000Y-126365000D01*
%TO.N,/ENABLE*%
X74549000Y-133223000D02*
X71337000Y-133223000D01*
X77338000Y-130434000D02*
X74549000Y-133223000D01*
X52705000Y-133223000D02*
X37465000Y-133223000D01*
X77338000Y-127127000D02*
X77338000Y-130434000D01*
%TO.N,/TX*%
X41275000Y-150622000D02*
X39116000Y-150622000D01*
%TO.N,Net-(MOD1-IO12)*%
X81153000Y-129540000D02*
X83855000Y-132242000D01*
X112066000Y-142480000D02*
X112066000Y-144689000D01*
X83855000Y-132242000D02*
X101828000Y-132242000D01*
X101828000Y-132242000D02*
X112066000Y-142480000D01*
%TO.N,/SD_CS*%
X90344000Y-136908000D02*
X72769000Y-136908000D01*
X96564000Y-136918000D02*
X95652000Y-137830000D01*
X96564000Y-136408000D02*
X96564000Y-136918000D01*
X91266000Y-137830000D02*
X90344000Y-136908000D01*
X72769000Y-136908000D02*
X62865000Y-146812000D01*
X95652000Y-137830000D02*
X91266000Y-137830000D01*
%TO.N,/SD_MOSI*%
X97664000Y-136996578D02*
X97664000Y-136408000D01*
X96230578Y-138430000D02*
X97664000Y-136996578D01*
X92583000Y-138430000D02*
X96230578Y-138430000D01*
%TO.N,/SD_CLK*%
X99822000Y-137922000D02*
X99822000Y-136450000D01*
X99822000Y-136450000D02*
X99864000Y-136408000D01*
%TO.N,/SD_MISO*%
X90703000Y-139421000D02*
X83312000Y-146812000D01*
X102064000Y-136408000D02*
X102064000Y-138220000D01*
X100863000Y-139421000D02*
X90703000Y-139421000D01*
X83312000Y-146812000D02*
X67183000Y-146812000D01*
X102064000Y-138220000D02*
X100863000Y-139421000D01*
%TO.N,Net-(IC1-EN)*%
X105491300Y-119080300D02*
X110398600Y-114173000D01*
X110398600Y-114173000D02*
X110398600Y-108381800D01*
%TO.N,/AUDIO_LRC*%
X67275000Y-133823000D02*
X62865000Y-129413000D01*
X87284000Y-133823000D02*
X67275000Y-133823000D01*
X88265000Y-132842000D02*
X87284000Y-133823000D01*
%TO.N,/AUDIO_BCLK*%
X61595000Y-133985000D02*
X61595000Y-129540000D01*
%TO.N,Net-(IC2-EN)*%
X50444400Y-112014000D02*
X50444400Y-113385600D01*
X50444400Y-113385600D02*
X43992800Y-119837200D01*
%TD*%
%TA.AperFunction,Conductor*%
%TO.N,GND*%
G36*
X129164394Y-101600971D02*
G01*
X129203914Y-101604429D01*
X129204953Y-101604525D01*
X129333724Y-101617208D01*
X129353649Y-101620834D01*
X129419302Y-101638425D01*
X129423179Y-101639532D01*
X129516384Y-101667806D01*
X129532778Y-101674079D01*
X129599720Y-101705294D01*
X129605710Y-101708288D01*
X129686535Y-101751490D01*
X129699173Y-101759254D01*
X129761366Y-101802802D01*
X129768886Y-101808508D01*
X129838299Y-101865474D01*
X129847315Y-101873646D01*
X129901352Y-101927683D01*
X129909524Y-101936699D01*
X129966490Y-102006112D01*
X129972203Y-102013641D01*
X130015739Y-102075817D01*
X130023514Y-102088474D01*
X130066696Y-102169261D01*
X130069712Y-102175295D01*
X130100917Y-102242215D01*
X130107196Y-102258625D01*
X130135462Y-102351808D01*
X130136576Y-102355708D01*
X130154163Y-102421343D01*
X130157791Y-102441282D01*
X130170458Y-102569888D01*
X130170583Y-102571234D01*
X130174028Y-102610604D01*
X130174500Y-102621413D01*
X130174500Y-151378585D01*
X130174028Y-151389395D01*
X130170582Y-151428773D01*
X130170457Y-151430117D01*
X130157791Y-151558715D01*
X130154163Y-151578655D01*
X130136576Y-151644290D01*
X130135462Y-151648190D01*
X130107196Y-151741373D01*
X130100917Y-151757783D01*
X130069712Y-151824703D01*
X130066688Y-151830753D01*
X130023516Y-151911521D01*
X130015733Y-151924191D01*
X129972212Y-151986345D01*
X129966490Y-151993886D01*
X129909524Y-152063299D01*
X129901352Y-152072315D01*
X129847315Y-152126352D01*
X129838299Y-152134524D01*
X129768886Y-152191490D01*
X129761345Y-152197212D01*
X129699191Y-152240733D01*
X129686521Y-152248516D01*
X129605753Y-152291688D01*
X129599703Y-152294712D01*
X129532783Y-152325917D01*
X129516373Y-152332196D01*
X129423190Y-152360462D01*
X129419290Y-152361576D01*
X129353655Y-152379163D01*
X129333715Y-152382791D01*
X129205117Y-152395457D01*
X129203773Y-152395582D01*
X129164395Y-152399028D01*
X129153585Y-152399500D01*
X82166000Y-152399500D01*
X82098961Y-152379815D01*
X82053206Y-152327011D01*
X82042000Y-152275500D01*
X82042000Y-148911763D01*
X124764787Y-148911763D01*
X124794413Y-149181013D01*
X124794415Y-149181024D01*
X124862926Y-149443082D01*
X124862928Y-149443088D01*
X124968870Y-149692390D01*
X125040998Y-149810575D01*
X125109979Y-149923605D01*
X125109986Y-149923615D01*
X125283253Y-150131819D01*
X125283259Y-150131824D01*
X125392143Y-150229384D01*
X125484998Y-150312582D01*
X125710910Y-150462044D01*
X125956176Y-150577020D01*
X125956183Y-150577022D01*
X125956185Y-150577023D01*
X126215557Y-150655057D01*
X126215564Y-150655058D01*
X126215569Y-150655060D01*
X126483561Y-150694500D01*
X126483566Y-150694500D01*
X126686629Y-150694500D01*
X126686631Y-150694500D01*
X126686636Y-150694499D01*
X126686648Y-150694499D01*
X126724191Y-150691750D01*
X126889156Y-150679677D01*
X127001758Y-150654593D01*
X127153546Y-150620782D01*
X127153548Y-150620781D01*
X127153553Y-150620780D01*
X127406558Y-150524014D01*
X127642777Y-150391441D01*
X127857177Y-150225888D01*
X128045186Y-150030881D01*
X128202799Y-149810579D01*
X128276787Y-149666669D01*
X128326649Y-149569690D01*
X128326651Y-149569684D01*
X128326656Y-149569675D01*
X128414118Y-149313305D01*
X128463319Y-149046933D01*
X128473212Y-148776235D01*
X128443586Y-148506982D01*
X128375072Y-148244912D01*
X128269130Y-147995610D01*
X128128018Y-147764390D01*
X128038747Y-147657119D01*
X127954746Y-147556180D01*
X127954740Y-147556175D01*
X127753002Y-147375418D01*
X127527092Y-147225957D01*
X127481576Y-147204620D01*
X127281824Y-147110980D01*
X127281819Y-147110978D01*
X127281814Y-147110976D01*
X127022442Y-147032942D01*
X127022428Y-147032939D01*
X126906791Y-147015921D01*
X126754439Y-146993500D01*
X126551369Y-146993500D01*
X126551351Y-146993500D01*
X126348844Y-147008323D01*
X126348831Y-147008325D01*
X126084453Y-147067217D01*
X126084446Y-147067220D01*
X125831439Y-147163987D01*
X125595226Y-147296557D01*
X125595224Y-147296558D01*
X125595223Y-147296559D01*
X125556131Y-147326745D01*
X125380822Y-147462112D01*
X125192822Y-147657109D01*
X125192816Y-147657116D01*
X125035202Y-147877419D01*
X125035199Y-147877424D01*
X124911350Y-148118309D01*
X124911343Y-148118327D01*
X124823884Y-148374685D01*
X124823881Y-148374699D01*
X124804294Y-148480744D01*
X124790856Y-148553499D01*
X124774681Y-148641068D01*
X124774680Y-148641075D01*
X124764787Y-148911763D01*
X82042000Y-148911763D01*
X82042000Y-147870469D01*
X93914796Y-147870469D01*
X93914797Y-147870471D01*
X93944245Y-148037485D01*
X93944246Y-148037488D01*
X93944247Y-148037492D01*
X94011421Y-148193219D01*
X94112698Y-148329258D01*
X94242617Y-148438273D01*
X94394175Y-148514388D01*
X94559201Y-148553500D01*
X94559203Y-148553500D01*
X94686249Y-148553500D01*
X94686256Y-148553500D01*
X94812451Y-148538750D01*
X94971820Y-148480744D01*
X95113517Y-148387549D01*
X95229902Y-148264188D01*
X95314701Y-148117312D01*
X95363342Y-147954839D01*
X95368256Y-147870469D01*
X100714796Y-147870469D01*
X100714797Y-147870471D01*
X100744245Y-148037485D01*
X100744246Y-148037488D01*
X100744247Y-148037492D01*
X100811421Y-148193219D01*
X100912698Y-148329258D01*
X101042617Y-148438273D01*
X101194175Y-148514388D01*
X101359201Y-148553500D01*
X101359203Y-148553500D01*
X101486249Y-148553500D01*
X101486256Y-148553500D01*
X101612451Y-148538750D01*
X101771820Y-148480744D01*
X101913517Y-148387549D01*
X102029902Y-148264188D01*
X102114701Y-148117312D01*
X102163342Y-147954839D01*
X102173203Y-147785529D01*
X102143753Y-147618508D01*
X102076579Y-147462781D01*
X101975302Y-147326742D01*
X101934925Y-147292862D01*
X101845383Y-147217727D01*
X101845381Y-147217726D01*
X101693828Y-147141613D01*
X101693826Y-147141612D01*
X101693825Y-147141612D01*
X101528799Y-147102500D01*
X101401744Y-147102500D01*
X101291323Y-147115406D01*
X101275548Y-147117250D01*
X101116181Y-147175255D01*
X101071534Y-147204620D01*
X100974483Y-147268451D01*
X100974482Y-147268451D01*
X100974482Y-147268452D01*
X100858098Y-147391810D01*
X100773300Y-147538685D01*
X100724658Y-147701159D01*
X100724657Y-147701165D01*
X100714796Y-147870469D01*
X95368256Y-147870469D01*
X95373203Y-147785529D01*
X95343753Y-147618508D01*
X95276579Y-147462781D01*
X95175302Y-147326742D01*
X95134925Y-147292862D01*
X95045383Y-147217727D01*
X95045381Y-147217726D01*
X94893828Y-147141613D01*
X94893826Y-147141612D01*
X94893825Y-147141612D01*
X94728799Y-147102500D01*
X94601744Y-147102500D01*
X94491323Y-147115406D01*
X94475548Y-147117250D01*
X94316181Y-147175255D01*
X94271534Y-147204620D01*
X94174483Y-147268451D01*
X94174482Y-147268451D01*
X94174482Y-147268452D01*
X94058098Y-147391810D01*
X93973300Y-147538685D01*
X93924658Y-147701159D01*
X93924657Y-147701165D01*
X93914796Y-147870469D01*
X82042000Y-147870469D01*
X82042000Y-147286500D01*
X82061685Y-147219461D01*
X82114489Y-147173706D01*
X82166000Y-147162500D01*
X83262789Y-147162500D01*
X83288234Y-147165138D01*
X83297315Y-147167043D01*
X83322673Y-147163881D01*
X83326123Y-147163452D01*
X83339764Y-147162605D01*
X83341026Y-147162500D01*
X83341040Y-147162500D01*
X83349071Y-147161159D01*
X83360014Y-147159334D01*
X83365063Y-147158597D01*
X83413393Y-147152573D01*
X83413399Y-147152569D01*
X83420456Y-147150468D01*
X83427377Y-147148092D01*
X83427381Y-147148092D01*
X83470216Y-147124909D01*
X83474729Y-147122586D01*
X83518484Y-147101198D01*
X83518486Y-147101195D01*
X83524461Y-147096929D01*
X83530256Y-147092419D01*
X83530255Y-147092419D01*
X83530258Y-147092418D01*
X83563254Y-147056572D01*
X83566756Y-147052924D01*
X90811863Y-139807819D01*
X90873186Y-139774334D01*
X90899544Y-139771500D01*
X94770000Y-139771500D01*
X94837039Y-139791185D01*
X94882794Y-139843989D01*
X94894000Y-139895500D01*
X94894000Y-139908000D01*
X94894000Y-143958000D01*
X105094000Y-143958000D01*
X105094000Y-139908000D01*
X101173778Y-139908000D01*
X101106739Y-139888315D01*
X101060984Y-139835511D01*
X101051040Y-139766353D01*
X101080065Y-139702797D01*
X101082546Y-139700020D01*
X101114229Y-139665601D01*
X101117756Y-139661924D01*
X102277046Y-138502634D01*
X102296902Y-138486511D01*
X102304669Y-138481437D01*
X102322496Y-138458531D01*
X102331542Y-138448289D01*
X102332362Y-138447319D01*
X102332375Y-138447307D01*
X102343588Y-138431601D01*
X102346592Y-138427572D01*
X102376517Y-138389126D01*
X102376520Y-138389115D01*
X102380021Y-138382648D01*
X102383235Y-138376071D01*
X102383239Y-138376067D01*
X102397127Y-138329417D01*
X102398686Y-138324550D01*
X102411821Y-138286291D01*
X102414500Y-138278488D01*
X102414500Y-138278483D01*
X102415706Y-138271252D01*
X102416617Y-138263952D01*
X102414606Y-138215332D01*
X102414500Y-138210207D01*
X102414500Y-137448491D01*
X102434185Y-137381452D01*
X102469610Y-137345388D01*
X102471737Y-137343966D01*
X102471740Y-137343966D01*
X102545114Y-137294939D01*
X102611787Y-137274064D01*
X102679167Y-137292549D01*
X102682842Y-137294910D01*
X102756260Y-137343966D01*
X102756262Y-137343966D01*
X102756264Y-137343967D01*
X102829321Y-137358499D01*
X102829324Y-137358500D01*
X102829326Y-137358500D01*
X103498676Y-137358500D01*
X103498677Y-137358499D01*
X103571740Y-137343966D01*
X103645112Y-137294940D01*
X103711786Y-137274064D01*
X103779167Y-137292548D01*
X103782841Y-137294910D01*
X103856260Y-137343966D01*
X103856262Y-137343966D01*
X103856264Y-137343967D01*
X103929321Y-137358499D01*
X103929324Y-137358500D01*
X103929326Y-137358500D01*
X104598676Y-137358500D01*
X104598677Y-137358499D01*
X104671740Y-137343966D01*
X104754601Y-137288601D01*
X104809966Y-137205740D01*
X104824500Y-137132674D01*
X104824500Y-136033544D01*
X104844185Y-135966505D01*
X104896989Y-135920750D01*
X104966147Y-135910806D01*
X105029703Y-135939831D01*
X105036181Y-135945863D01*
X111679181Y-142588863D01*
X111712666Y-142650186D01*
X111715500Y-142676544D01*
X111715500Y-143393907D01*
X111695815Y-143460946D01*
X111643011Y-143506701D01*
X111638895Y-143508387D01*
X111438361Y-143601898D01*
X111438357Y-143601900D01*
X111259121Y-143727402D01*
X111104402Y-143882121D01*
X110978900Y-144061357D01*
X110978898Y-144061361D01*
X110886426Y-144259668D01*
X110886422Y-144259677D01*
X110829793Y-144471020D01*
X110829793Y-144471024D01*
X110810723Y-144688997D01*
X110810723Y-144689002D01*
X110829793Y-144906975D01*
X110829793Y-144906979D01*
X110886422Y-145118322D01*
X110886424Y-145118326D01*
X110886425Y-145118330D01*
X110932661Y-145217484D01*
X110978897Y-145316638D01*
X110978898Y-145316639D01*
X111104402Y-145495877D01*
X111259123Y-145650598D01*
X111438361Y-145776102D01*
X111636670Y-145868575D01*
X111848023Y-145925207D01*
X112030926Y-145941208D01*
X112065998Y-145944277D01*
X112066000Y-145944277D01*
X112066002Y-145944277D01*
X112094254Y-145941805D01*
X112283977Y-145925207D01*
X112495330Y-145868575D01*
X112693639Y-145776102D01*
X112872877Y-145650598D01*
X113027598Y-145495877D01*
X113153102Y-145316639D01*
X113245575Y-145118330D01*
X113302207Y-144906977D01*
X113321277Y-144689002D01*
X117310723Y-144689002D01*
X117329793Y-144906975D01*
X117329793Y-144906979D01*
X117386422Y-145118322D01*
X117386424Y-145118326D01*
X117386425Y-145118330D01*
X117432661Y-145217484D01*
X117478897Y-145316638D01*
X117478898Y-145316639D01*
X117604402Y-145495877D01*
X117759123Y-145650598D01*
X117938361Y-145776102D01*
X118136670Y-145868575D01*
X118348023Y-145925207D01*
X118530926Y-145941208D01*
X118565998Y-145944277D01*
X118566000Y-145944277D01*
X118566002Y-145944277D01*
X118594254Y-145941805D01*
X118783977Y-145925207D01*
X118995330Y-145868575D01*
X119193639Y-145776102D01*
X119372877Y-145650598D01*
X119527598Y-145495877D01*
X119653102Y-145316639D01*
X119745575Y-145118330D01*
X119802207Y-144906977D01*
X119821277Y-144689000D01*
X119802207Y-144471023D01*
X119745575Y-144259670D01*
X119653102Y-144061362D01*
X119653100Y-144061359D01*
X119653099Y-144061357D01*
X119527599Y-143882124D01*
X119519054Y-143873579D01*
X119372877Y-143727402D01*
X119193639Y-143601898D01*
X119193640Y-143601898D01*
X119193638Y-143601897D01*
X119094484Y-143555661D01*
X118995330Y-143509425D01*
X118995326Y-143509424D01*
X118995322Y-143509422D01*
X118783977Y-143452793D01*
X118566002Y-143433723D01*
X118565998Y-143433723D01*
X118420682Y-143446436D01*
X118348023Y-143452793D01*
X118348020Y-143452793D01*
X118136677Y-143509422D01*
X118136668Y-143509426D01*
X117938361Y-143601898D01*
X117938357Y-143601900D01*
X117759121Y-143727402D01*
X117604402Y-143882121D01*
X117478900Y-144061357D01*
X117478898Y-144061361D01*
X117386426Y-144259668D01*
X117386422Y-144259677D01*
X117329793Y-144471020D01*
X117329793Y-144471024D01*
X117310723Y-144688997D01*
X117310723Y-144689002D01*
X113321277Y-144689002D01*
X113321277Y-144689000D01*
X113302207Y-144471023D01*
X113245575Y-144259670D01*
X113153102Y-144061362D01*
X113153100Y-144061359D01*
X113153099Y-144061357D01*
X113027599Y-143882124D01*
X113019054Y-143873579D01*
X112872877Y-143727402D01*
X112693639Y-143601898D01*
X112693640Y-143601898D01*
X112693638Y-143601897D01*
X112490423Y-143507137D01*
X112491236Y-143505391D01*
X112441806Y-143468977D01*
X112416887Y-143403702D01*
X112416500Y-143393907D01*
X112416500Y-142529206D01*
X112419139Y-142503760D01*
X112421042Y-142494685D01*
X112417451Y-142465883D01*
X112416603Y-142452208D01*
X112416500Y-142450970D01*
X112416500Y-142450960D01*
X112413328Y-142431959D01*
X112412594Y-142426915D01*
X112406573Y-142378607D01*
X112406572Y-142378604D01*
X112404477Y-142371566D01*
X112402092Y-142364618D01*
X112378928Y-142321817D01*
X112376579Y-142317254D01*
X112355199Y-142273518D01*
X112350926Y-142267534D01*
X112346420Y-142261745D01*
X112346419Y-142261744D01*
X112346418Y-142261742D01*
X112310587Y-142228757D01*
X112306914Y-142225232D01*
X102110637Y-132028955D01*
X102094511Y-132009098D01*
X102089437Y-132001331D01*
X102066524Y-131983497D01*
X102056248Y-131974422D01*
X102055309Y-131973627D01*
X102055307Y-131973625D01*
X102039651Y-131962447D01*
X102035544Y-131959385D01*
X102029838Y-131954943D01*
X101997126Y-131929483D01*
X101997124Y-131929482D01*
X101990640Y-131925973D01*
X101984067Y-131922759D01*
X101937409Y-131908868D01*
X101932532Y-131907306D01*
X101886484Y-131891498D01*
X101879287Y-131890297D01*
X101871951Y-131889382D01*
X101823332Y-131891394D01*
X101818207Y-131891500D01*
X84051544Y-131891500D01*
X83984505Y-131871815D01*
X83963863Y-131855181D01*
X81744560Y-129635878D01*
X81711075Y-129574555D01*
X81709983Y-129548129D01*
X81708250Y-129548129D01*
X81708250Y-129540000D01*
X81708250Y-129539999D01*
X81689330Y-129396291D01*
X81643647Y-129286000D01*
X117173750Y-129286000D01*
X117191540Y-129421129D01*
X117192670Y-129429708D01*
X117192671Y-129429712D01*
X117248137Y-129563622D01*
X117248138Y-129563624D01*
X117248139Y-129563625D01*
X117336379Y-129678621D01*
X117451375Y-129766861D01*
X117585291Y-129822330D01*
X117712280Y-129839048D01*
X117728999Y-129841250D01*
X117729000Y-129841250D01*
X117729001Y-129841250D01*
X117743977Y-129839278D01*
X117872709Y-129822330D01*
X118006625Y-129766861D01*
X118121621Y-129678621D01*
X118138626Y-129656459D01*
X118195052Y-129615259D01*
X118264798Y-129611104D01*
X118325719Y-129645316D01*
X118335366Y-129656450D01*
X118352379Y-129678621D01*
X118467375Y-129766861D01*
X118601291Y-129822330D01*
X118728280Y-129839048D01*
X118744999Y-129841250D01*
X118745000Y-129841250D01*
X118745001Y-129841250D01*
X118759977Y-129839278D01*
X118888709Y-129822330D01*
X119022625Y-129766861D01*
X119137621Y-129678621D01*
X119225861Y-129563625D01*
X119281330Y-129429709D01*
X119300250Y-129286000D01*
X119300250Y-129285999D01*
X119300250Y-129277871D01*
X119304049Y-129277871D01*
X119311388Y-129226418D01*
X119336556Y-129190124D01*
X121647863Y-126878819D01*
X121709186Y-126845334D01*
X121735544Y-126842500D01*
X124862908Y-126842500D01*
X124929947Y-126862185D01*
X124949412Y-126880086D01*
X124950628Y-126878871D01*
X124956372Y-126884615D01*
X124956377Y-126884619D01*
X124956379Y-126884621D01*
X125071375Y-126972861D01*
X125205291Y-127028330D01*
X125332280Y-127045048D01*
X125348999Y-127047250D01*
X125349000Y-127047250D01*
X125349001Y-127047250D01*
X125363977Y-127045278D01*
X125492709Y-127028330D01*
X125626625Y-126972861D01*
X125741621Y-126884621D01*
X125829861Y-126769625D01*
X125885330Y-126635709D01*
X125904250Y-126492000D01*
X125885330Y-126348291D01*
X125829861Y-126214375D01*
X125741621Y-126099379D01*
X125626625Y-126011139D01*
X125626624Y-126011138D01*
X125626622Y-126011137D01*
X125492712Y-125955671D01*
X125492710Y-125955670D01*
X125492709Y-125955670D01*
X125410259Y-125944815D01*
X125349001Y-125936750D01*
X125348999Y-125936750D01*
X125205291Y-125955670D01*
X125205287Y-125955671D01*
X125071377Y-126011137D01*
X124956372Y-126099384D01*
X124950628Y-126105129D01*
X124948111Y-126102612D01*
X124904817Y-126134203D01*
X124862908Y-126141500D01*
X121588211Y-126141500D01*
X121562765Y-126138861D01*
X121553685Y-126136957D01*
X121553684Y-126136957D01*
X121553683Y-126136957D01*
X121524877Y-126140548D01*
X121511211Y-126141396D01*
X121509965Y-126141499D01*
X121490960Y-126144669D01*
X121485903Y-126145405D01*
X121437607Y-126151426D01*
X121430570Y-126153520D01*
X121423619Y-126155907D01*
X121380809Y-126179074D01*
X121376258Y-126181417D01*
X121332513Y-126202804D01*
X121326520Y-126207081D01*
X121320743Y-126211579D01*
X121287769Y-126247398D01*
X121284222Y-126251095D01*
X121030081Y-126505236D01*
X120968758Y-126538721D01*
X120899066Y-126533737D01*
X120843133Y-126491865D01*
X120818716Y-126426401D01*
X120819460Y-126401377D01*
X120824250Y-126365000D01*
X120805330Y-126221291D01*
X120749861Y-126087375D01*
X120661621Y-125972379D01*
X120546625Y-125884139D01*
X120546624Y-125884138D01*
X120546622Y-125884137D01*
X120412712Y-125828671D01*
X120412710Y-125828670D01*
X120412709Y-125828670D01*
X120340854Y-125819210D01*
X120269001Y-125809750D01*
X120268999Y-125809750D01*
X120125291Y-125828670D01*
X120125287Y-125828671D01*
X119991377Y-125884137D01*
X119876379Y-125972379D01*
X119788137Y-126087377D01*
X119732671Y-126221287D01*
X119732670Y-126221291D01*
X119713750Y-126365000D01*
X119713750Y-126373128D01*
X119710456Y-126373128D01*
X119701192Y-126427588D01*
X119677439Y-126460877D01*
X117515955Y-128622361D01*
X117496106Y-128638482D01*
X117488331Y-128643562D01*
X117470499Y-128666472D01*
X117461394Y-128676784D01*
X117460624Y-128677694D01*
X117449439Y-128693359D01*
X117446378Y-128697463D01*
X117416482Y-128735873D01*
X117412980Y-128742344D01*
X117409760Y-128748932D01*
X117395871Y-128795582D01*
X117394309Y-128800458D01*
X117383858Y-128830902D01*
X117343473Y-128887918D01*
X117342072Y-128889010D01*
X117336381Y-128893377D01*
X117248137Y-129008377D01*
X117192671Y-129142287D01*
X117192670Y-129142291D01*
X117174969Y-129276744D01*
X117173750Y-129286000D01*
X81643647Y-129286000D01*
X81633861Y-129262375D01*
X81545621Y-129147379D01*
X81430625Y-129059139D01*
X81430624Y-129059138D01*
X81430622Y-129059137D01*
X81296712Y-129003671D01*
X81296710Y-129003670D01*
X81296709Y-129003670D01*
X81224854Y-128994210D01*
X81153001Y-128984750D01*
X81152999Y-128984750D01*
X81009291Y-129003670D01*
X81009287Y-129003671D01*
X80875377Y-129059137D01*
X80760379Y-129147379D01*
X80672137Y-129262377D01*
X80616671Y-129396287D01*
X80616670Y-129396291D01*
X80597750Y-129539999D01*
X80597750Y-129540000D01*
X80616670Y-129683708D01*
X80616671Y-129683712D01*
X80672137Y-129817622D01*
X80672138Y-129817623D01*
X80672139Y-129817625D01*
X80760379Y-129932621D01*
X80875375Y-130020861D01*
X81009291Y-130076330D01*
X81153000Y-130095250D01*
X81161129Y-130095250D01*
X81161129Y-130098828D01*
X81213970Y-130107031D01*
X81248878Y-130131560D01*
X81842637Y-130725319D01*
X81876122Y-130786642D01*
X81871138Y-130856334D01*
X81829266Y-130912267D01*
X81763802Y-130936684D01*
X81754956Y-130937000D01*
X77630043Y-130937000D01*
X77563004Y-130917315D01*
X77517249Y-130864511D01*
X77507305Y-130795353D01*
X77536330Y-130731797D01*
X77542362Y-130725319D01*
X77551042Y-130716639D01*
X77570905Y-130700509D01*
X77578669Y-130695437D01*
X77596496Y-130672531D01*
X77605545Y-130662285D01*
X77606362Y-130661319D01*
X77606376Y-130661306D01*
X77617570Y-130645626D01*
X77620615Y-130641543D01*
X77650514Y-130603130D01*
X77650514Y-130603129D01*
X77650517Y-130603126D01*
X77650518Y-130603121D01*
X77654016Y-130596657D01*
X77657236Y-130590070D01*
X77657240Y-130590066D01*
X77671131Y-130543404D01*
X77672686Y-130538550D01*
X77688500Y-130492488D01*
X77688500Y-130492483D01*
X77689705Y-130485258D01*
X77690617Y-130477950D01*
X77688606Y-130429320D01*
X77688500Y-130424196D01*
X77688500Y-128351500D01*
X77708185Y-128284461D01*
X77760989Y-128238706D01*
X77812500Y-128227500D01*
X78212676Y-128227500D01*
X78212677Y-128227499D01*
X78285740Y-128212966D01*
X78368601Y-128157601D01*
X78423966Y-128074740D01*
X78438500Y-128001674D01*
X78438500Y-127127000D01*
X78772785Y-127127000D01*
X78791602Y-127330082D01*
X78847417Y-127526247D01*
X78847422Y-127526260D01*
X78938327Y-127708821D01*
X79061237Y-127871581D01*
X79211958Y-128008980D01*
X79211960Y-128008982D01*
X79261446Y-128039622D01*
X79385363Y-128116348D01*
X79575544Y-128190024D01*
X79776024Y-128227500D01*
X79776026Y-128227500D01*
X79979974Y-128227500D01*
X79979976Y-128227500D01*
X80180456Y-128190024D01*
X80370637Y-128116348D01*
X80544041Y-128008981D01*
X80694764Y-127871579D01*
X80817673Y-127708821D01*
X80908582Y-127526250D01*
X80964397Y-127330083D01*
X80983215Y-127127000D01*
X80964397Y-126923917D01*
X80908582Y-126727750D01*
X80817673Y-126545179D01*
X80754011Y-126460877D01*
X80694762Y-126382418D01*
X80544041Y-126245019D01*
X80544039Y-126245017D01*
X80370642Y-126137655D01*
X80370635Y-126137651D01*
X80240856Y-126087375D01*
X80180456Y-126063976D01*
X79979976Y-126026500D01*
X79776024Y-126026500D01*
X79575544Y-126063976D01*
X79575541Y-126063976D01*
X79575541Y-126063977D01*
X79385364Y-126137651D01*
X79385357Y-126137655D01*
X79211960Y-126245017D01*
X79211958Y-126245019D01*
X79061237Y-126382418D01*
X78938327Y-126545178D01*
X78847422Y-126727739D01*
X78847417Y-126727752D01*
X78791602Y-126923917D01*
X78772785Y-127126999D01*
X78772785Y-127127000D01*
X78438500Y-127127000D01*
X78438500Y-126252326D01*
X78438500Y-126252323D01*
X78438499Y-126252321D01*
X78423967Y-126179264D01*
X78423966Y-126179260D01*
X78401345Y-126145405D01*
X78368601Y-126096399D01*
X78285740Y-126041034D01*
X78285739Y-126041033D01*
X78285735Y-126041032D01*
X78212677Y-126026500D01*
X78212674Y-126026500D01*
X76463326Y-126026500D01*
X76463323Y-126026500D01*
X76390264Y-126041032D01*
X76390260Y-126041033D01*
X76307399Y-126096399D01*
X76252033Y-126179260D01*
X76252032Y-126179264D01*
X76237500Y-126252321D01*
X76237500Y-128001678D01*
X76252032Y-128074735D01*
X76252033Y-128074739D01*
X76252034Y-128074740D01*
X76307399Y-128157601D01*
X76390260Y-128212966D01*
X76390264Y-128212967D01*
X76463321Y-128227499D01*
X76463324Y-128227500D01*
X76463326Y-128227500D01*
X76863500Y-128227500D01*
X76930539Y-128247185D01*
X76976294Y-128299989D01*
X76987500Y-128351500D01*
X76987500Y-130237456D01*
X76967815Y-130304495D01*
X76951181Y-130325137D01*
X76375638Y-130900681D01*
X76314315Y-130934166D01*
X76287957Y-130937000D01*
X75057000Y-130937000D01*
X75064069Y-132160166D01*
X75044772Y-132227318D01*
X75027752Y-132248564D01*
X74440137Y-132836181D01*
X74378814Y-132869666D01*
X74352456Y-132872500D01*
X71823092Y-132872500D01*
X71756053Y-132852815D01*
X71736587Y-132834913D01*
X71735372Y-132836129D01*
X71729627Y-132830384D01*
X71729621Y-132830379D01*
X71614625Y-132742139D01*
X71614624Y-132742138D01*
X71614622Y-132742137D01*
X71480712Y-132686671D01*
X71480710Y-132686670D01*
X71480709Y-132686670D01*
X71408854Y-132677210D01*
X71337001Y-132667750D01*
X71336999Y-132667750D01*
X71193291Y-132686670D01*
X71193287Y-132686671D01*
X71059377Y-132742137D01*
X70944379Y-132830379D01*
X70856137Y-132945377D01*
X70800671Y-133079287D01*
X70800670Y-133079291D01*
X70781750Y-133223000D01*
X70794897Y-133322862D01*
X70796142Y-133332314D01*
X70785377Y-133401349D01*
X70738997Y-133453605D01*
X70673203Y-133472500D01*
X67471544Y-133472500D01*
X67404505Y-133452815D01*
X67383863Y-133436181D01*
X63456560Y-129508878D01*
X63423075Y-129447555D01*
X63421983Y-129421129D01*
X63420250Y-129421129D01*
X63420250Y-129413000D01*
X63414685Y-129370732D01*
X63401330Y-129269291D01*
X63345861Y-129135375D01*
X63257621Y-129020379D01*
X63142625Y-128932139D01*
X63142624Y-128932138D01*
X63142622Y-128932137D01*
X63008712Y-128876671D01*
X63008710Y-128876670D01*
X63008709Y-128876670D01*
X62902082Y-128862632D01*
X62865001Y-128857750D01*
X62864999Y-128857750D01*
X62721291Y-128876670D01*
X62721287Y-128876671D01*
X62587377Y-128932137D01*
X62472379Y-129020379D01*
X62384137Y-129135377D01*
X62328671Y-129269287D01*
X62326567Y-129277141D01*
X62325085Y-129276744D01*
X62300521Y-129332265D01*
X62242194Y-129370732D01*
X62172329Y-129371559D01*
X62113108Y-129334483D01*
X62091292Y-129299629D01*
X62075862Y-129262377D01*
X62075861Y-129262376D01*
X62075861Y-129262375D01*
X61987621Y-129147379D01*
X61872625Y-129059139D01*
X61872624Y-129059138D01*
X61872622Y-129059137D01*
X61738712Y-129003671D01*
X61738710Y-129003670D01*
X61738709Y-129003670D01*
X61666854Y-128994210D01*
X61595001Y-128984750D01*
X61594999Y-128984750D01*
X61451291Y-129003670D01*
X61451287Y-129003671D01*
X61317377Y-129059137D01*
X61202379Y-129147379D01*
X61114137Y-129262377D01*
X61058671Y-129396287D01*
X61058670Y-129396291D01*
X61039750Y-129539999D01*
X61039750Y-129540000D01*
X61058670Y-129683708D01*
X61058671Y-129683712D01*
X61114138Y-129817623D01*
X61114139Y-129817625D01*
X61202380Y-129932623D01*
X61208126Y-129938369D01*
X61205574Y-129940920D01*
X61237091Y-129983873D01*
X61244500Y-130026092D01*
X61244500Y-133498908D01*
X61224815Y-133565947D01*
X61206913Y-133585412D01*
X61208129Y-133586628D01*
X61202384Y-133592372D01*
X61114137Y-133707377D01*
X61058671Y-133841287D01*
X61058670Y-133841291D01*
X61040965Y-133975775D01*
X61039750Y-133985000D01*
X61055340Y-134103419D01*
X61058670Y-134128708D01*
X61058671Y-134128712D01*
X61114137Y-134262622D01*
X61114138Y-134262624D01*
X61114139Y-134262625D01*
X61202379Y-134377621D01*
X61317375Y-134465861D01*
X61451291Y-134521330D01*
X61578280Y-134538048D01*
X61594999Y-134540250D01*
X61595000Y-134540250D01*
X61595001Y-134540250D01*
X61609977Y-134538278D01*
X61738709Y-134521330D01*
X61872625Y-134465861D01*
X61987621Y-134377621D01*
X62075861Y-134262625D01*
X62131330Y-134128709D01*
X62150250Y-133985000D01*
X62149035Y-133975775D01*
X62142546Y-133926483D01*
X62131330Y-133841291D01*
X62075861Y-133707375D01*
X61987621Y-133592379D01*
X61987619Y-133592377D01*
X61987615Y-133592372D01*
X61981871Y-133586628D01*
X61984387Y-133584111D01*
X61952797Y-133540817D01*
X61945500Y-133498908D01*
X61945500Y-130026092D01*
X61965185Y-129959053D01*
X61983114Y-129939609D01*
X61981874Y-129938369D01*
X61987619Y-129932623D01*
X61987621Y-129932621D01*
X62075861Y-129817625D01*
X62131330Y-129683709D01*
X62131331Y-129683700D01*
X62133433Y-129675859D01*
X62134916Y-129676256D01*
X62159466Y-129620749D01*
X62217787Y-129582272D01*
X62287651Y-129581434D01*
X62346878Y-129618501D01*
X62368707Y-129653369D01*
X62384138Y-129690623D01*
X62384139Y-129690625D01*
X62472379Y-129805621D01*
X62587375Y-129893861D01*
X62721291Y-129949330D01*
X62865000Y-129968250D01*
X62873129Y-129968250D01*
X62873129Y-129972084D01*
X62924346Y-129979281D01*
X62960878Y-130004559D01*
X66992360Y-134036041D01*
X67008484Y-134055896D01*
X67013563Y-134063669D01*
X67036478Y-134081504D01*
X67046728Y-134090558D01*
X67047690Y-134091372D01*
X67063347Y-134102551D01*
X67067459Y-134105617D01*
X67105874Y-134135517D01*
X67112346Y-134139019D01*
X67118934Y-134142240D01*
X67165593Y-134156131D01*
X67170437Y-134157682D01*
X67216512Y-134173500D01*
X67216517Y-134173500D01*
X67223755Y-134174708D01*
X67231044Y-134175616D01*
X67231046Y-134175617D01*
X67231047Y-134175616D01*
X67231048Y-134175617D01*
X67268855Y-134174053D01*
X67279679Y-134173605D01*
X67284802Y-134173500D01*
X74952423Y-134173500D01*
X75019462Y-134193185D01*
X75065217Y-134245989D01*
X75076420Y-134296781D01*
X75083994Y-135606986D01*
X75088767Y-136432783D01*
X75069470Y-136499935D01*
X75016932Y-136545995D01*
X74964769Y-136557500D01*
X72818206Y-136557500D01*
X72792761Y-136554861D01*
X72792016Y-136554704D01*
X72783685Y-136552958D01*
X72783684Y-136552958D01*
X72754884Y-136556548D01*
X72741181Y-136557398D01*
X72739962Y-136557499D01*
X72720990Y-136560665D01*
X72715923Y-136561403D01*
X72667605Y-136567426D01*
X72660584Y-136569516D01*
X72653617Y-136571908D01*
X72610812Y-136595072D01*
X72606261Y-136597415D01*
X72562513Y-136618803D01*
X72556566Y-136623047D01*
X72550738Y-136627584D01*
X72517780Y-136663386D01*
X72514233Y-136667083D01*
X62960877Y-146220439D01*
X62899554Y-146253924D01*
X62873128Y-146255208D01*
X62873128Y-146256750D01*
X62865000Y-146256750D01*
X62721291Y-146275670D01*
X62721287Y-146275671D01*
X62587377Y-146331137D01*
X62472379Y-146419379D01*
X62384137Y-146534377D01*
X62328671Y-146668287D01*
X62328670Y-146668291D01*
X62309750Y-146811999D01*
X62309750Y-146812000D01*
X62328670Y-146955708D01*
X62328671Y-146955712D01*
X62384137Y-147089622D01*
X62384138Y-147089624D01*
X62384139Y-147089625D01*
X62472379Y-147204621D01*
X62587375Y-147292861D01*
X62721291Y-147348330D01*
X62848280Y-147365048D01*
X62864999Y-147367250D01*
X62865000Y-147367250D01*
X62865001Y-147367250D01*
X62879977Y-147365278D01*
X63008709Y-147348330D01*
X63142625Y-147292861D01*
X63257621Y-147204621D01*
X63345861Y-147089625D01*
X63401330Y-146955709D01*
X63420250Y-146812000D01*
X63420250Y-146811999D01*
X63420250Y-146803871D01*
X63424049Y-146803871D01*
X63431388Y-146752418D01*
X63456556Y-146716124D01*
X72877863Y-137294819D01*
X72939186Y-137261334D01*
X72965544Y-137258500D01*
X74970255Y-137258500D01*
X75037294Y-137278185D01*
X75083049Y-137330989D01*
X75094252Y-137381781D01*
X75129393Y-143460946D01*
X75146016Y-146336783D01*
X75126719Y-146403935D01*
X75074181Y-146449995D01*
X75022018Y-146461500D01*
X67669092Y-146461500D01*
X67602053Y-146441815D01*
X67582587Y-146423913D01*
X67581372Y-146425129D01*
X67575627Y-146419384D01*
X67575621Y-146419379D01*
X67460625Y-146331139D01*
X67460624Y-146331138D01*
X67460622Y-146331137D01*
X67326712Y-146275671D01*
X67326710Y-146275670D01*
X67326709Y-146275670D01*
X67235638Y-146263680D01*
X67183001Y-146256750D01*
X67182999Y-146256750D01*
X67039291Y-146275670D01*
X67039287Y-146275671D01*
X66905377Y-146331137D01*
X66790379Y-146419379D01*
X66702137Y-146534377D01*
X66646671Y-146668287D01*
X66646670Y-146668291D01*
X66627750Y-146811999D01*
X66627750Y-146812000D01*
X66646670Y-146955708D01*
X66646671Y-146955712D01*
X66702137Y-147089622D01*
X66702138Y-147089624D01*
X66702139Y-147089625D01*
X66790379Y-147204621D01*
X66905375Y-147292861D01*
X67039291Y-147348330D01*
X67166280Y-147365048D01*
X67182999Y-147367250D01*
X67183000Y-147367250D01*
X67183001Y-147367250D01*
X67197977Y-147365278D01*
X67326709Y-147348330D01*
X67460625Y-147292861D01*
X67575621Y-147204621D01*
X67575623Y-147204617D01*
X67575627Y-147204615D01*
X67581372Y-147198871D01*
X67583888Y-147201387D01*
X67627183Y-147169797D01*
X67669092Y-147162500D01*
X75027504Y-147162500D01*
X75094543Y-147182185D01*
X75140298Y-147234989D01*
X75151501Y-147285781D01*
X75167577Y-150066750D01*
X75180340Y-152274783D01*
X75161043Y-152341935D01*
X75108505Y-152387995D01*
X75056342Y-152399500D01*
X25532414Y-152399500D01*
X25521605Y-152399028D01*
X25482234Y-152395583D01*
X25480888Y-152395458D01*
X25352282Y-152382791D01*
X25332343Y-152379163D01*
X25266708Y-152361576D01*
X25262808Y-152360462D01*
X25169625Y-152332196D01*
X25153215Y-152325917D01*
X25086295Y-152294712D01*
X25080261Y-152291696D01*
X24999474Y-152248514D01*
X24986817Y-152240739D01*
X24924641Y-152197203D01*
X24917112Y-152191490D01*
X24847699Y-152134524D01*
X24838683Y-152126352D01*
X24784646Y-152072315D01*
X24776474Y-152063299D01*
X24719508Y-151993886D01*
X24713802Y-151986366D01*
X24670254Y-151924173D01*
X24662490Y-151911535D01*
X24619288Y-151830710D01*
X24616294Y-151824720D01*
X24585079Y-151757778D01*
X24578806Y-151741384D01*
X24550532Y-151648179D01*
X24549422Y-151644290D01*
X24531835Y-151578655D01*
X24528208Y-151558724D01*
X24515525Y-151429953D01*
X24515417Y-151428773D01*
X24511972Y-151389394D01*
X24511500Y-151378589D01*
X24511500Y-150622000D01*
X38560750Y-150622000D01*
X38568343Y-150679677D01*
X38579670Y-150765708D01*
X38579671Y-150765712D01*
X38635137Y-150899622D01*
X38635138Y-150899624D01*
X38635139Y-150899625D01*
X38723379Y-151014621D01*
X38838375Y-151102861D01*
X38972291Y-151158330D01*
X39099280Y-151175048D01*
X39115999Y-151177250D01*
X39116000Y-151177250D01*
X39116001Y-151177250D01*
X39130977Y-151175278D01*
X39259709Y-151158330D01*
X39393625Y-151102861D01*
X39508621Y-151014621D01*
X39508623Y-151014617D01*
X39508627Y-151014615D01*
X39514372Y-151008871D01*
X39516888Y-151011387D01*
X39560183Y-150979797D01*
X39602092Y-150972500D01*
X40788908Y-150972500D01*
X40855947Y-150992185D01*
X40875412Y-151010086D01*
X40876628Y-151008871D01*
X40882372Y-151014615D01*
X40882377Y-151014619D01*
X40882379Y-151014621D01*
X40997375Y-151102861D01*
X41131291Y-151158330D01*
X41258280Y-151175048D01*
X41274999Y-151177250D01*
X41275000Y-151177250D01*
X41275001Y-151177250D01*
X41289977Y-151175278D01*
X41418709Y-151158330D01*
X41552625Y-151102861D01*
X41667621Y-151014621D01*
X41755861Y-150899625D01*
X41811330Y-150765709D01*
X41830250Y-150622000D01*
X41830089Y-150620780D01*
X41828048Y-150605280D01*
X41811330Y-150478291D01*
X41755861Y-150344375D01*
X41667621Y-150229379D01*
X41552625Y-150141139D01*
X41552624Y-150141138D01*
X41552622Y-150141137D01*
X41418712Y-150085671D01*
X41418710Y-150085670D01*
X41418709Y-150085670D01*
X41346854Y-150076210D01*
X41275001Y-150066750D01*
X41274999Y-150066750D01*
X41131291Y-150085670D01*
X41131287Y-150085671D01*
X40997377Y-150141137D01*
X40882372Y-150229384D01*
X40876628Y-150235129D01*
X40874111Y-150232612D01*
X40830817Y-150264203D01*
X40788908Y-150271500D01*
X39602092Y-150271500D01*
X39535053Y-150251815D01*
X39515587Y-150233913D01*
X39514372Y-150235129D01*
X39508627Y-150229384D01*
X39508621Y-150229379D01*
X39393625Y-150141139D01*
X39393624Y-150141138D01*
X39393622Y-150141137D01*
X39259712Y-150085671D01*
X39259710Y-150085670D01*
X39259709Y-150085670D01*
X39187854Y-150076210D01*
X39116001Y-150066750D01*
X39115999Y-150066750D01*
X38972291Y-150085670D01*
X38972287Y-150085671D01*
X38838377Y-150141137D01*
X38723379Y-150229379D01*
X38635137Y-150344377D01*
X38579671Y-150478287D01*
X38579670Y-150478291D01*
X38560911Y-150620780D01*
X38560750Y-150622000D01*
X24511500Y-150622000D01*
X24511500Y-143129000D01*
X26077785Y-143129000D01*
X26096602Y-143332082D01*
X26152417Y-143528247D01*
X26152422Y-143528260D01*
X26243327Y-143710821D01*
X26366237Y-143873581D01*
X26516958Y-144010980D01*
X26516960Y-144010982D01*
X26598319Y-144061357D01*
X26690363Y-144118348D01*
X26880544Y-144192024D01*
X27081024Y-144229500D01*
X27081026Y-144229500D01*
X27284974Y-144229500D01*
X27284976Y-144229500D01*
X27485456Y-144192024D01*
X27675637Y-144118348D01*
X27849041Y-144010981D01*
X27999764Y-143873579D01*
X28122673Y-143710821D01*
X28213582Y-143528250D01*
X28269397Y-143332083D01*
X28288215Y-143129000D01*
X31157785Y-143129000D01*
X31176602Y-143332082D01*
X31232417Y-143528247D01*
X31232422Y-143528260D01*
X31323327Y-143710821D01*
X31446237Y-143873581D01*
X31596958Y-144010980D01*
X31596960Y-144010982D01*
X31678319Y-144061357D01*
X31770363Y-144118348D01*
X31960544Y-144192024D01*
X32161024Y-144229500D01*
X32161026Y-144229500D01*
X32364974Y-144229500D01*
X32364976Y-144229500D01*
X32565456Y-144192024D01*
X32755637Y-144118348D01*
X32929041Y-144010981D01*
X33079764Y-143873579D01*
X33202673Y-143710821D01*
X33293582Y-143528250D01*
X33349397Y-143332083D01*
X33368215Y-143129000D01*
X33697785Y-143129000D01*
X33716602Y-143332082D01*
X33772417Y-143528247D01*
X33772422Y-143528260D01*
X33863327Y-143710821D01*
X33986237Y-143873581D01*
X34136958Y-144010980D01*
X34136960Y-144010982D01*
X34218319Y-144061357D01*
X34310363Y-144118348D01*
X34500544Y-144192024D01*
X34701024Y-144229500D01*
X34701026Y-144229500D01*
X34904974Y-144229500D01*
X34904976Y-144229500D01*
X35105456Y-144192024D01*
X35295637Y-144118348D01*
X35469041Y-144010981D01*
X35619764Y-143873579D01*
X35742673Y-143710821D01*
X35833582Y-143528250D01*
X35889397Y-143332083D01*
X35908215Y-143129000D01*
X36237785Y-143129000D01*
X36256602Y-143332082D01*
X36312417Y-143528247D01*
X36312422Y-143528260D01*
X36403327Y-143710821D01*
X36526237Y-143873581D01*
X36676958Y-144010980D01*
X36676960Y-144010982D01*
X36758319Y-144061357D01*
X36850363Y-144118348D01*
X37040544Y-144192024D01*
X37241024Y-144229500D01*
X37241026Y-144229500D01*
X37444974Y-144229500D01*
X37444976Y-144229500D01*
X37645456Y-144192024D01*
X37835637Y-144118348D01*
X38009041Y-144010981D01*
X38159764Y-143873579D01*
X38282673Y-143710821D01*
X38373582Y-143528250D01*
X38429397Y-143332083D01*
X38448215Y-143129000D01*
X38777785Y-143129000D01*
X38796602Y-143332082D01*
X38852417Y-143528247D01*
X38852422Y-143528260D01*
X38943327Y-143710821D01*
X39066237Y-143873581D01*
X39216958Y-144010980D01*
X39216960Y-144010982D01*
X39298319Y-144061357D01*
X39390363Y-144118348D01*
X39580544Y-144192024D01*
X39781024Y-144229500D01*
X39781026Y-144229500D01*
X39984974Y-144229500D01*
X39984976Y-144229500D01*
X40185456Y-144192024D01*
X40375637Y-144118348D01*
X40549041Y-144010981D01*
X40557052Y-144003678D01*
X41322500Y-144003678D01*
X41337032Y-144076735D01*
X41337033Y-144076739D01*
X41337034Y-144076740D01*
X41392399Y-144159601D01*
X41475260Y-144214966D01*
X41475264Y-144214967D01*
X41548321Y-144229499D01*
X41548324Y-144229500D01*
X41548326Y-144229500D01*
X43297676Y-144229500D01*
X43297677Y-144229499D01*
X43370740Y-144214966D01*
X43453601Y-144159601D01*
X43508966Y-144076740D01*
X43523500Y-144003674D01*
X43523500Y-142254326D01*
X43523500Y-142254323D01*
X43523499Y-142254321D01*
X43508967Y-142181264D01*
X43508966Y-142181260D01*
X43453601Y-142098399D01*
X43370740Y-142043034D01*
X43370739Y-142043033D01*
X43370735Y-142043032D01*
X43297677Y-142028500D01*
X43297674Y-142028500D01*
X41548326Y-142028500D01*
X41548323Y-142028500D01*
X41475264Y-142043032D01*
X41475260Y-142043033D01*
X41392399Y-142098399D01*
X41337033Y-142181260D01*
X41337032Y-142181264D01*
X41322500Y-142254321D01*
X41322500Y-144003678D01*
X40557052Y-144003678D01*
X40699764Y-143873579D01*
X40822673Y-143710821D01*
X40913582Y-143528250D01*
X40969397Y-143332083D01*
X40988215Y-143129000D01*
X40969397Y-142925917D01*
X40913582Y-142729750D01*
X40822673Y-142547179D01*
X40750010Y-142450958D01*
X40699762Y-142384418D01*
X40549041Y-142247019D01*
X40549039Y-142247017D01*
X40375642Y-142139655D01*
X40375635Y-142139651D01*
X40269150Y-142098399D01*
X40185456Y-142065976D01*
X39984976Y-142028500D01*
X39781024Y-142028500D01*
X39580544Y-142065976D01*
X39580541Y-142065976D01*
X39580541Y-142065977D01*
X39390364Y-142139651D01*
X39390357Y-142139655D01*
X39216960Y-142247017D01*
X39216958Y-142247019D01*
X39066237Y-142384418D01*
X38943327Y-142547178D01*
X38852422Y-142729739D01*
X38852417Y-142729752D01*
X38796602Y-142925917D01*
X38777785Y-143128999D01*
X38777785Y-143129000D01*
X38448215Y-143129000D01*
X38429397Y-142925917D01*
X38373582Y-142729750D01*
X38282673Y-142547179D01*
X38210010Y-142450958D01*
X38159762Y-142384418D01*
X38009041Y-142247019D01*
X38009039Y-142247017D01*
X37835642Y-142139655D01*
X37835635Y-142139651D01*
X37729150Y-142098399D01*
X37645456Y-142065976D01*
X37444976Y-142028500D01*
X37241024Y-142028500D01*
X37040544Y-142065976D01*
X37040541Y-142065976D01*
X37040541Y-142065977D01*
X36850364Y-142139651D01*
X36850357Y-142139655D01*
X36676960Y-142247017D01*
X36676958Y-142247019D01*
X36526237Y-142384418D01*
X36403327Y-142547178D01*
X36312422Y-142729739D01*
X36312417Y-142729752D01*
X36256602Y-142925917D01*
X36237785Y-143128999D01*
X36237785Y-143129000D01*
X35908215Y-143129000D01*
X35889397Y-142925917D01*
X35833582Y-142729750D01*
X35742673Y-142547179D01*
X35670010Y-142450958D01*
X35619762Y-142384418D01*
X35469041Y-142247019D01*
X35469039Y-142247017D01*
X35295642Y-142139655D01*
X35295635Y-142139651D01*
X35189150Y-142098399D01*
X35105456Y-142065976D01*
X34904976Y-142028500D01*
X34701024Y-142028500D01*
X34500544Y-142065976D01*
X34500541Y-142065976D01*
X34500541Y-142065977D01*
X34310364Y-142139651D01*
X34310357Y-142139655D01*
X34136960Y-142247017D01*
X34136958Y-142247019D01*
X33986237Y-142384418D01*
X33863327Y-142547178D01*
X33772422Y-142729739D01*
X33772417Y-142729752D01*
X33716602Y-142925917D01*
X33697785Y-143128999D01*
X33697785Y-143129000D01*
X33368215Y-143129000D01*
X33349397Y-142925917D01*
X33293582Y-142729750D01*
X33202673Y-142547179D01*
X33130010Y-142450958D01*
X33079762Y-142384418D01*
X32929041Y-142247019D01*
X32929039Y-142247017D01*
X32755642Y-142139655D01*
X32755635Y-142139651D01*
X32649150Y-142098399D01*
X32565456Y-142065976D01*
X32364976Y-142028500D01*
X32161024Y-142028500D01*
X31960544Y-142065976D01*
X31960541Y-142065976D01*
X31960541Y-142065977D01*
X31770364Y-142139651D01*
X31770357Y-142139655D01*
X31596960Y-142247017D01*
X31596958Y-142247019D01*
X31446237Y-142384418D01*
X31323327Y-142547178D01*
X31232422Y-142729739D01*
X31232417Y-142729752D01*
X31176602Y-142925917D01*
X31157785Y-143128999D01*
X31157785Y-143129000D01*
X28288215Y-143129000D01*
X28269397Y-142925917D01*
X28213582Y-142729750D01*
X28122673Y-142547179D01*
X28050010Y-142450958D01*
X27999762Y-142384418D01*
X27849041Y-142247019D01*
X27849039Y-142247017D01*
X27675642Y-142139655D01*
X27675635Y-142139651D01*
X27569150Y-142098399D01*
X27485456Y-142065976D01*
X27284976Y-142028500D01*
X27081024Y-142028500D01*
X26880544Y-142065976D01*
X26880541Y-142065976D01*
X26880541Y-142065977D01*
X26690364Y-142139651D01*
X26690357Y-142139655D01*
X26516960Y-142247017D01*
X26516958Y-142247019D01*
X26366237Y-142384418D01*
X26243327Y-142547178D01*
X26152422Y-142729739D01*
X26152417Y-142729752D01*
X26096602Y-142925917D01*
X26077785Y-143128999D01*
X26077785Y-143129000D01*
X24511500Y-143129000D01*
X24511500Y-137354763D01*
X38404787Y-137354763D01*
X38434413Y-137624013D01*
X38434415Y-137624024D01*
X38474745Y-137778287D01*
X38502928Y-137886088D01*
X38608870Y-138135390D01*
X38721955Y-138320686D01*
X38749979Y-138366605D01*
X38749986Y-138366615D01*
X38923253Y-138574819D01*
X38923259Y-138574824D01*
X39124998Y-138755582D01*
X39350910Y-138905044D01*
X39596176Y-139020020D01*
X39596183Y-139020022D01*
X39596185Y-139020023D01*
X39855557Y-139098057D01*
X39855564Y-139098058D01*
X39855569Y-139098060D01*
X40123561Y-139137500D01*
X40123566Y-139137500D01*
X40326629Y-139137500D01*
X40326631Y-139137500D01*
X40326636Y-139137499D01*
X40326648Y-139137499D01*
X40364191Y-139134750D01*
X40529156Y-139122677D01*
X40641758Y-139097593D01*
X40793546Y-139063782D01*
X40793548Y-139063781D01*
X40793553Y-139063780D01*
X41046558Y-138967014D01*
X41282777Y-138834441D01*
X41497177Y-138668888D01*
X41685186Y-138473881D01*
X41842799Y-138253579D01*
X41923015Y-138097558D01*
X41966649Y-138012690D01*
X41966651Y-138012684D01*
X41966656Y-138012675D01*
X42054118Y-137756305D01*
X42103319Y-137489933D01*
X42113212Y-137219235D01*
X42083586Y-136949982D01*
X42015072Y-136687912D01*
X41909130Y-136438610D01*
X41768018Y-136207390D01*
X41678747Y-136100119D01*
X41594746Y-135999180D01*
X41594740Y-135999175D01*
X41393002Y-135818418D01*
X41167092Y-135668957D01*
X41085139Y-135630539D01*
X40921824Y-135553980D01*
X40921819Y-135553978D01*
X40921814Y-135553976D01*
X40662442Y-135475942D01*
X40662428Y-135475939D01*
X40546791Y-135458921D01*
X40394439Y-135436500D01*
X40191369Y-135436500D01*
X40191351Y-135436500D01*
X39988844Y-135451323D01*
X39988831Y-135451325D01*
X39724453Y-135510217D01*
X39724446Y-135510220D01*
X39471439Y-135606987D01*
X39235226Y-135739557D01*
X39020822Y-135905112D01*
X38832822Y-136100109D01*
X38832816Y-136100116D01*
X38675202Y-136320419D01*
X38675199Y-136320424D01*
X38551350Y-136561309D01*
X38551343Y-136561327D01*
X38463884Y-136817685D01*
X38463881Y-136817699D01*
X38414681Y-137084068D01*
X38414680Y-137084075D01*
X38404787Y-137354763D01*
X24511500Y-137354763D01*
X24511500Y-133223000D01*
X36909750Y-133223000D01*
X36928670Y-133366708D01*
X36928671Y-133366712D01*
X36984137Y-133500622D01*
X36984138Y-133500624D01*
X36984139Y-133500625D01*
X37072379Y-133615621D01*
X37187375Y-133703861D01*
X37187376Y-133703861D01*
X37187377Y-133703862D01*
X37232013Y-133722350D01*
X37321291Y-133759330D01*
X37448280Y-133776048D01*
X37464999Y-133778250D01*
X37465000Y-133778250D01*
X37465001Y-133778250D01*
X37479977Y-133776278D01*
X37608709Y-133759330D01*
X37742625Y-133703861D01*
X37857621Y-133615621D01*
X37857623Y-133615617D01*
X37857627Y-133615615D01*
X37863372Y-133609871D01*
X37865888Y-133612387D01*
X37909183Y-133580797D01*
X37951092Y-133573500D01*
X52218908Y-133573500D01*
X52285947Y-133593185D01*
X52305412Y-133611086D01*
X52306628Y-133609871D01*
X52312372Y-133615615D01*
X52312377Y-133615619D01*
X52312379Y-133615621D01*
X52427375Y-133703861D01*
X52427376Y-133703861D01*
X52427377Y-133703862D01*
X52472013Y-133722350D01*
X52561291Y-133759330D01*
X52688280Y-133776048D01*
X52704999Y-133778250D01*
X52705000Y-133778250D01*
X52705001Y-133778250D01*
X52719977Y-133776278D01*
X52848709Y-133759330D01*
X52982625Y-133703861D01*
X53097621Y-133615621D01*
X53185861Y-133500625D01*
X53241330Y-133366709D01*
X53260250Y-133223000D01*
X53241330Y-133079291D01*
X53185861Y-132945375D01*
X53097621Y-132830379D01*
X52982625Y-132742139D01*
X52982624Y-132742138D01*
X52982622Y-132742137D01*
X52848712Y-132686671D01*
X52848710Y-132686670D01*
X52848709Y-132686670D01*
X52776854Y-132677210D01*
X52705001Y-132667750D01*
X52704999Y-132667750D01*
X52561291Y-132686670D01*
X52561287Y-132686671D01*
X52427377Y-132742137D01*
X52312372Y-132830384D01*
X52306628Y-132836129D01*
X52304111Y-132833612D01*
X52260817Y-132865203D01*
X52218908Y-132872500D01*
X37951092Y-132872500D01*
X37884053Y-132852815D01*
X37864587Y-132834913D01*
X37863372Y-132836129D01*
X37857627Y-132830384D01*
X37857621Y-132830379D01*
X37742625Y-132742139D01*
X37742624Y-132742138D01*
X37742622Y-132742137D01*
X37608712Y-132686671D01*
X37608710Y-132686670D01*
X37608709Y-132686670D01*
X37536854Y-132677210D01*
X37465001Y-132667750D01*
X37464999Y-132667750D01*
X37321291Y-132686670D01*
X37321287Y-132686671D01*
X37187377Y-132742137D01*
X37072379Y-132830379D01*
X36984137Y-132945377D01*
X36928671Y-133079287D01*
X36928670Y-133079291D01*
X36909750Y-133222999D01*
X36909750Y-133223000D01*
X24511500Y-133223000D01*
X24511500Y-105223763D01*
X26212787Y-105223763D01*
X26242413Y-105493013D01*
X26242415Y-105493024D01*
X26310926Y-105755082D01*
X26310928Y-105755088D01*
X26416870Y-106004390D01*
X26488998Y-106122575D01*
X26557979Y-106235605D01*
X26557986Y-106235615D01*
X26731253Y-106443819D01*
X26731259Y-106443824D01*
X26741698Y-106453177D01*
X26932998Y-106624582D01*
X27158910Y-106774044D01*
X27404176Y-106889020D01*
X27404183Y-106889022D01*
X27404185Y-106889023D01*
X27663557Y-106967057D01*
X27663564Y-106967058D01*
X27663569Y-106967060D01*
X27931561Y-107006500D01*
X27931566Y-107006500D01*
X28134629Y-107006500D01*
X28134631Y-107006500D01*
X28134636Y-107006499D01*
X28134648Y-107006499D01*
X28172191Y-107003750D01*
X28337156Y-106991677D01*
X28474820Y-106961011D01*
X28601546Y-106932782D01*
X28601548Y-106932781D01*
X28601553Y-106932780D01*
X28854558Y-106836014D01*
X29042029Y-106730800D01*
X36427150Y-106730800D01*
X36446070Y-106874509D01*
X36470238Y-106932857D01*
X36472461Y-106938222D01*
X36481900Y-106985675D01*
X36481900Y-121903658D01*
X36479067Y-121930006D01*
X36478041Y-121934727D01*
X36478041Y-121934729D01*
X36478041Y-121934730D01*
X36481584Y-121984261D01*
X36481900Y-121993108D01*
X36481900Y-122006597D01*
X36483820Y-122019954D01*
X36484765Y-122028746D01*
X36488309Y-122078286D01*
X36489993Y-122082800D01*
X36496548Y-122108482D01*
X36497234Y-122113255D01*
X36517857Y-122158412D01*
X36521245Y-122166590D01*
X36538603Y-122213129D01*
X36541496Y-122216994D01*
X36555017Y-122239783D01*
X36557019Y-122244167D01*
X36557022Y-122244172D01*
X36557023Y-122244173D01*
X36589544Y-122281704D01*
X36595088Y-122288585D01*
X36603179Y-122299393D01*
X36612733Y-122308947D01*
X36618753Y-122315414D01*
X36651272Y-122352943D01*
X36651274Y-122352945D01*
X36655328Y-122355550D01*
X36675971Y-122372185D01*
X39171814Y-124868028D01*
X39188446Y-124888666D01*
X39191054Y-124892725D01*
X39191057Y-124892728D01*
X39228600Y-124925258D01*
X39235061Y-124931275D01*
X39244606Y-124940820D01*
X39255412Y-124948909D01*
X39262298Y-124954458D01*
X39299827Y-124986977D01*
X39304205Y-124988976D01*
X39327004Y-125002503D01*
X39329807Y-125004600D01*
X39330868Y-125005395D01*
X39377404Y-125022752D01*
X39385572Y-125026136D01*
X39430734Y-125046762D01*
X39430737Y-125046762D01*
X39430743Y-125046765D01*
X39435516Y-125047451D01*
X39461204Y-125054008D01*
X39465717Y-125055691D01*
X39515235Y-125059232D01*
X39524036Y-125060178D01*
X39537401Y-125062100D01*
X39550901Y-125062100D01*
X39559747Y-125062416D01*
X39609273Y-125065958D01*
X39612502Y-125065255D01*
X39613981Y-125064934D01*
X39640338Y-125062100D01*
X69153801Y-125062100D01*
X72526057Y-125062100D01*
X72552415Y-125064934D01*
X72557127Y-125065959D01*
X72606661Y-125062415D01*
X72615508Y-125062100D01*
X72628999Y-125062100D01*
X72642356Y-125060179D01*
X72651151Y-125059233D01*
X72700683Y-125055691D01*
X72705192Y-125054008D01*
X72730885Y-125047450D01*
X72735657Y-125046765D01*
X72780837Y-125026130D01*
X72789001Y-125022749D01*
X72835531Y-125005396D01*
X72839389Y-125002507D01*
X72862195Y-124988975D01*
X72866573Y-124986977D01*
X72904099Y-124954459D01*
X72910978Y-124948916D01*
X72921793Y-124940821D01*
X72931355Y-124931258D01*
X72937817Y-124925243D01*
X72975343Y-124892728D01*
X72977951Y-124888668D01*
X72994581Y-124868031D01*
X73732083Y-124130529D01*
X73772307Y-124103652D01*
X73836025Y-124077261D01*
X73951021Y-123989021D01*
X74039261Y-123874025D01*
X74094730Y-123740109D01*
X74113650Y-123596400D01*
X74094730Y-123452691D01*
X74039261Y-123318775D01*
X73951021Y-123203779D01*
X73836025Y-123115539D01*
X73836024Y-123115538D01*
X73836022Y-123115537D01*
X73702112Y-123060071D01*
X73702110Y-123060070D01*
X73702109Y-123060070D01*
X73630254Y-123050610D01*
X73558401Y-123041150D01*
X73558399Y-123041150D01*
X73414691Y-123060070D01*
X73414687Y-123060071D01*
X73280777Y-123115537D01*
X73211614Y-123168608D01*
X73165779Y-123203779D01*
X73090011Y-123302522D01*
X73077537Y-123318778D01*
X73051147Y-123382489D01*
X73024267Y-123422717D01*
X72422205Y-124024781D01*
X72360882Y-124058266D01*
X72334524Y-124061100D01*
X39831876Y-124061100D01*
X39764837Y-124041415D01*
X39744195Y-124024781D01*
X38744314Y-123024900D01*
X75606650Y-123024900D01*
X75625570Y-123168608D01*
X75625571Y-123168612D01*
X75681037Y-123302522D01*
X75681038Y-123302524D01*
X75681039Y-123302525D01*
X75769279Y-123417521D01*
X75884275Y-123505761D01*
X76018191Y-123561230D01*
X76145180Y-123577948D01*
X76161899Y-123580150D01*
X76161900Y-123580150D01*
X76161901Y-123580150D01*
X76176877Y-123578178D01*
X76305609Y-123561230D01*
X76439525Y-123505761D01*
X76486180Y-123469960D01*
X76510860Y-123451024D01*
X76576029Y-123425830D01*
X76586346Y-123425400D01*
X81532645Y-123425400D01*
X81599684Y-123445085D01*
X81620326Y-123461719D01*
X84833413Y-126674807D01*
X84833433Y-126674825D01*
X84851658Y-126693050D01*
X84871398Y-126703108D01*
X84887987Y-126713274D01*
X84905909Y-126726295D01*
X84905910Y-126726295D01*
X84905911Y-126726296D01*
X84926980Y-126733142D01*
X84944949Y-126740584D01*
X84964696Y-126750646D01*
X84986582Y-126754112D01*
X85005497Y-126758653D01*
X85026567Y-126765500D01*
X85058481Y-126765500D01*
X99858745Y-126765500D01*
X99925784Y-126785185D01*
X99946426Y-126801819D01*
X100889675Y-127745067D01*
X100923160Y-127806390D01*
X100924933Y-127816562D01*
X100936670Y-127905707D01*
X100936671Y-127905712D01*
X100992137Y-128039622D01*
X100992138Y-128039624D01*
X100992139Y-128039625D01*
X101080379Y-128154621D01*
X101195375Y-128242861D01*
X101329291Y-128298330D01*
X101456280Y-128315048D01*
X101472999Y-128317250D01*
X101473000Y-128317250D01*
X101473001Y-128317250D01*
X101487977Y-128315278D01*
X101616709Y-128298330D01*
X101750625Y-128242861D01*
X101865621Y-128154621D01*
X101953861Y-128039625D01*
X102009330Y-127905709D01*
X102028250Y-127762000D01*
X102009330Y-127618291D01*
X101953861Y-127484375D01*
X101865621Y-127369379D01*
X101750625Y-127281139D01*
X101750624Y-127281138D01*
X101750622Y-127281137D01*
X101616712Y-127225671D01*
X101616710Y-127225670D01*
X101616709Y-127225670D01*
X101563363Y-127218646D01*
X101527562Y-127213933D01*
X101463665Y-127185666D01*
X101456067Y-127178675D01*
X100333813Y-126056419D01*
X100333782Y-126056390D01*
X100314342Y-126036950D01*
X100314340Y-126036949D01*
X100294600Y-126026890D01*
X100278014Y-126016726D01*
X100260090Y-126003704D01*
X100260091Y-126003704D01*
X100239018Y-125996857D01*
X100221045Y-125989412D01*
X100201307Y-125979355D01*
X100201304Y-125979354D01*
X100179418Y-125975887D01*
X100160507Y-125971346D01*
X100139439Y-125964501D01*
X100139434Y-125964500D01*
X100139433Y-125964500D01*
X100139429Y-125964500D01*
X85307255Y-125964500D01*
X85240216Y-125944815D01*
X85219574Y-125928181D01*
X82007713Y-122716319D01*
X82007682Y-122716290D01*
X81988242Y-122696850D01*
X81988240Y-122696849D01*
X81968500Y-122686790D01*
X81951914Y-122676626D01*
X81933990Y-122663604D01*
X81933991Y-122663604D01*
X81912918Y-122656757D01*
X81894945Y-122649312D01*
X81875207Y-122639255D01*
X81875204Y-122639254D01*
X81853318Y-122635787D01*
X81834407Y-122631246D01*
X81813339Y-122624401D01*
X81813334Y-122624400D01*
X81813333Y-122624400D01*
X81813329Y-122624400D01*
X76586346Y-122624400D01*
X76519307Y-122604715D01*
X76510860Y-122598776D01*
X76439525Y-122544039D01*
X76439523Y-122544038D01*
X76305612Y-122488571D01*
X76305610Y-122488570D01*
X76305609Y-122488570D01*
X76233754Y-122479110D01*
X76161901Y-122469650D01*
X76161899Y-122469650D01*
X76018191Y-122488570D01*
X76018187Y-122488571D01*
X75884277Y-122544037D01*
X75769279Y-122632279D01*
X75681037Y-122747277D01*
X75625571Y-122881187D01*
X75625570Y-122881191D01*
X75606650Y-123024899D01*
X75606650Y-123024900D01*
X38744314Y-123024900D01*
X37519219Y-121799805D01*
X37485734Y-121738482D01*
X37482900Y-121712124D01*
X37482900Y-119837200D01*
X43437550Y-119837200D01*
X43456470Y-119980908D01*
X43456471Y-119980912D01*
X43511937Y-120114822D01*
X43511938Y-120114824D01*
X43511939Y-120114825D01*
X43600179Y-120229821D01*
X43715175Y-120318061D01*
X43849091Y-120373530D01*
X43976080Y-120390248D01*
X43992799Y-120392450D01*
X43992800Y-120392450D01*
X43992801Y-120392450D01*
X44007777Y-120390478D01*
X44136509Y-120373530D01*
X44270425Y-120318061D01*
X44385421Y-120229821D01*
X44473661Y-120114825D01*
X44529130Y-119980909D01*
X44548050Y-119837200D01*
X44548050Y-119837199D01*
X44548050Y-119829071D01*
X44551849Y-119829071D01*
X44559188Y-119777618D01*
X44584356Y-119741324D01*
X45555280Y-118770400D01*
X47399950Y-118770400D01*
X47418870Y-118914108D01*
X47418871Y-118914112D01*
X47474337Y-119048022D01*
X47474338Y-119048024D01*
X47474339Y-119048025D01*
X47562579Y-119163021D01*
X47677575Y-119251261D01*
X47811491Y-119306730D01*
X47938480Y-119323448D01*
X47955199Y-119325650D01*
X47955200Y-119325650D01*
X47955201Y-119325650D01*
X47970177Y-119323678D01*
X48098909Y-119306730D01*
X48232825Y-119251261D01*
X48347821Y-119163021D01*
X48411295Y-119080300D01*
X104936050Y-119080300D01*
X104946940Y-119163020D01*
X104954970Y-119224008D01*
X104954971Y-119224012D01*
X105010437Y-119357922D01*
X105010438Y-119357924D01*
X105010439Y-119357925D01*
X105098679Y-119472921D01*
X105213675Y-119561161D01*
X105347591Y-119616630D01*
X105474580Y-119633348D01*
X105491299Y-119635550D01*
X105491300Y-119635550D01*
X105491301Y-119635550D01*
X105506277Y-119633578D01*
X105635009Y-119616630D01*
X105768925Y-119561161D01*
X105883921Y-119472921D01*
X105972161Y-119357925D01*
X106027630Y-119224009D01*
X106046550Y-119080300D01*
X106046550Y-119080299D01*
X106046550Y-119072171D01*
X106050349Y-119072171D01*
X106057688Y-119020718D01*
X106082856Y-118984424D01*
X110611646Y-114455634D01*
X110631502Y-114439511D01*
X110639269Y-114434437D01*
X110657096Y-114411531D01*
X110666151Y-114401279D01*
X110666965Y-114400316D01*
X110666975Y-114400307D01*
X110678176Y-114384616D01*
X110681172Y-114380597D01*
X110711117Y-114342126D01*
X110711119Y-114342118D01*
X110714613Y-114335661D01*
X110717835Y-114329070D01*
X110717839Y-114329066D01*
X110731733Y-114282393D01*
X110733279Y-114277567D01*
X110749100Y-114231488D01*
X110749100Y-114231482D01*
X110750306Y-114224256D01*
X110751217Y-114216952D01*
X110749206Y-114168332D01*
X110749100Y-114163207D01*
X110749100Y-108867892D01*
X110768785Y-108800853D01*
X110786714Y-108781409D01*
X110785474Y-108780169D01*
X110791219Y-108774423D01*
X110791221Y-108774421D01*
X110879461Y-108659425D01*
X110934930Y-108525509D01*
X110953850Y-108381800D01*
X110934930Y-108238091D01*
X110887776Y-108124250D01*
X110879462Y-108104177D01*
X110879461Y-108104176D01*
X110879461Y-108104175D01*
X110791221Y-107989179D01*
X110676225Y-107900939D01*
X110676224Y-107900938D01*
X110676222Y-107900937D01*
X110542312Y-107845471D01*
X110542310Y-107845470D01*
X110542309Y-107845470D01*
X110470454Y-107836010D01*
X110398601Y-107826550D01*
X110398599Y-107826550D01*
X110254891Y-107845470D01*
X110254887Y-107845471D01*
X110120977Y-107900937D01*
X110005979Y-107989179D01*
X109917737Y-108104177D01*
X109862271Y-108238087D01*
X109862270Y-108238091D01*
X109843350Y-108381799D01*
X109843350Y-108381800D01*
X109862270Y-108525508D01*
X109862271Y-108525512D01*
X109917738Y-108659423D01*
X109917739Y-108659425D01*
X110005980Y-108774423D01*
X110011726Y-108780169D01*
X110009174Y-108782720D01*
X110040691Y-108825673D01*
X110048100Y-108867892D01*
X110048100Y-113976455D01*
X110028415Y-114043494D01*
X110011781Y-114064136D01*
X105587177Y-118488739D01*
X105525854Y-118522224D01*
X105499428Y-118523508D01*
X105499428Y-118525050D01*
X105491300Y-118525050D01*
X105347591Y-118543970D01*
X105347587Y-118543971D01*
X105213677Y-118599437D01*
X105098679Y-118687679D01*
X105010437Y-118802677D01*
X104954971Y-118936587D01*
X104954970Y-118936591D01*
X104940300Y-119048022D01*
X104936050Y-119080300D01*
X48411295Y-119080300D01*
X48436061Y-119048025D01*
X48491530Y-118914109D01*
X48503266Y-118824962D01*
X48531531Y-118761068D01*
X48538511Y-118753480D01*
X49507173Y-117784819D01*
X49568496Y-117751334D01*
X49594854Y-117748500D01*
X71457554Y-117748500D01*
X71524593Y-117768185D01*
X71533040Y-117774124D01*
X71582582Y-117812139D01*
X71604375Y-117828861D01*
X71738291Y-117884330D01*
X71865280Y-117901048D01*
X71881999Y-117903250D01*
X71882000Y-117903250D01*
X71882001Y-117903250D01*
X71896977Y-117901278D01*
X72025709Y-117884330D01*
X72159625Y-117828861D01*
X72274621Y-117740621D01*
X72362861Y-117625625D01*
X72418330Y-117491709D01*
X72437250Y-117348000D01*
X72418330Y-117204291D01*
X72362861Y-117070375D01*
X72274621Y-116955379D01*
X72159625Y-116867139D01*
X72159624Y-116867138D01*
X72159622Y-116867137D01*
X72025712Y-116811671D01*
X72025710Y-116811670D01*
X72025709Y-116811670D01*
X71953854Y-116802210D01*
X71882001Y-116792750D01*
X71881999Y-116792750D01*
X71738291Y-116811670D01*
X71738287Y-116811671D01*
X71604376Y-116867138D01*
X71604374Y-116867139D01*
X71533040Y-116921876D01*
X71467871Y-116947070D01*
X71457554Y-116947500D01*
X49340970Y-116947500D01*
X49340946Y-116947501D01*
X49314164Y-116947501D01*
X49293099Y-116954346D01*
X49274182Y-116958887D01*
X49252300Y-116962352D01*
X49252295Y-116962354D01*
X49232550Y-116972414D01*
X49214586Y-116979855D01*
X49193507Y-116986705D01*
X49175584Y-116999727D01*
X49158999Y-117009890D01*
X49139259Y-117019948D01*
X49127976Y-117031232D01*
X49116691Y-117042517D01*
X47972130Y-118187075D01*
X47910807Y-118220560D01*
X47900636Y-118222333D01*
X47811489Y-118234070D01*
X47677577Y-118289537D01*
X47562579Y-118377779D01*
X47474337Y-118492777D01*
X47418871Y-118626687D01*
X47418870Y-118626691D01*
X47399950Y-118770399D01*
X47399950Y-118770400D01*
X45555280Y-118770400D01*
X49492280Y-114833400D01*
X84392550Y-114833400D01*
X84411470Y-114977108D01*
X84411471Y-114977112D01*
X84466937Y-115111022D01*
X84466938Y-115111024D01*
X84466939Y-115111025D01*
X84555179Y-115226021D01*
X84670175Y-115314261D01*
X84804091Y-115369730D01*
X84931080Y-115386448D01*
X84947799Y-115388650D01*
X84947800Y-115388650D01*
X84947801Y-115388650D01*
X84962777Y-115386678D01*
X85091509Y-115369730D01*
X85225425Y-115314261D01*
X85272080Y-115278460D01*
X85296760Y-115259524D01*
X85361929Y-115234330D01*
X85372246Y-115233900D01*
X105026431Y-115233900D01*
X105026433Y-115233900D01*
X105047501Y-115227054D01*
X105066417Y-115222512D01*
X105088304Y-115219046D01*
X105108044Y-115208986D01*
X105126011Y-115201544D01*
X105147090Y-115194696D01*
X105165026Y-115181663D01*
X105181588Y-115171514D01*
X105201342Y-115161450D01*
X105216834Y-115145957D01*
X105216841Y-115145952D01*
X105807018Y-114555775D01*
X107790870Y-112571921D01*
X107852191Y-112538438D01*
X107862345Y-112536668D01*
X107951509Y-112524930D01*
X108085425Y-112469461D01*
X108200421Y-112381221D01*
X108288661Y-112266225D01*
X108344130Y-112132309D01*
X108363050Y-111988600D01*
X108361360Y-111975767D01*
X108355866Y-111934036D01*
X108344130Y-111844891D01*
X108288661Y-111710975D01*
X108200421Y-111595979D01*
X108085425Y-111507739D01*
X108085424Y-111507738D01*
X108085422Y-111507737D01*
X107951512Y-111452271D01*
X107951510Y-111452270D01*
X107951509Y-111452270D01*
X107879654Y-111442810D01*
X107807801Y-111433350D01*
X107807799Y-111433350D01*
X107664091Y-111452270D01*
X107664087Y-111452271D01*
X107530177Y-111507737D01*
X107415179Y-111595979D01*
X107326937Y-111710977D01*
X107271470Y-111844889D01*
X107259733Y-111934036D01*
X107231466Y-111997932D01*
X107224475Y-112005530D01*
X104833426Y-114396581D01*
X104772103Y-114430066D01*
X104745745Y-114432900D01*
X85372246Y-114432900D01*
X85305207Y-114413215D01*
X85296760Y-114407276D01*
X85225425Y-114352539D01*
X85225423Y-114352538D01*
X85091512Y-114297071D01*
X85091510Y-114297070D01*
X85091509Y-114297070D01*
X85019654Y-114287610D01*
X84947801Y-114278150D01*
X84947799Y-114278150D01*
X84804091Y-114297070D01*
X84804087Y-114297071D01*
X84670177Y-114352537D01*
X84555179Y-114440779D01*
X84466937Y-114555777D01*
X84411471Y-114689687D01*
X84411470Y-114689691D01*
X84392550Y-114833399D01*
X84392550Y-114833400D01*
X49492280Y-114833400D01*
X50657446Y-113668234D01*
X50677302Y-113652111D01*
X50685069Y-113647037D01*
X50702896Y-113624131D01*
X50711951Y-113613879D01*
X50712765Y-113612916D01*
X50712775Y-113612907D01*
X50723976Y-113597216D01*
X50726972Y-113593197D01*
X50756917Y-113554726D01*
X50756919Y-113554718D01*
X50760413Y-113548261D01*
X50763635Y-113541670D01*
X50763639Y-113541666D01*
X50777533Y-113494993D01*
X50779079Y-113490167D01*
X50794900Y-113444088D01*
X50794900Y-113444082D01*
X50796106Y-113436856D01*
X50797017Y-113429552D01*
X50795006Y-113380932D01*
X50794900Y-113375807D01*
X50794900Y-112500092D01*
X50814585Y-112433053D01*
X50832514Y-112413609D01*
X50831274Y-112412369D01*
X50837019Y-112406623D01*
X50856511Y-112381221D01*
X50925261Y-112291625D01*
X50980730Y-112157709D01*
X50999650Y-112014000D01*
X50980730Y-111870291D01*
X50925261Y-111736375D01*
X50837021Y-111621379D01*
X50722025Y-111533139D01*
X50722024Y-111533138D01*
X50722022Y-111533137D01*
X50588112Y-111477671D01*
X50588110Y-111477670D01*
X50588109Y-111477670D01*
X50516254Y-111468210D01*
X50444401Y-111458750D01*
X50444399Y-111458750D01*
X50300691Y-111477670D01*
X50300687Y-111477671D01*
X50166777Y-111533137D01*
X50051779Y-111621379D01*
X49963537Y-111736377D01*
X49908071Y-111870287D01*
X49908070Y-111870291D01*
X49889150Y-112013999D01*
X49889150Y-112014000D01*
X49908070Y-112157708D01*
X49908071Y-112157712D01*
X49963538Y-112291623D01*
X49963539Y-112291625D01*
X50051780Y-112406623D01*
X50057526Y-112412369D01*
X50054974Y-112414920D01*
X50086491Y-112457873D01*
X50093900Y-112500092D01*
X50093900Y-113189055D01*
X50074215Y-113256094D01*
X50057581Y-113276736D01*
X44088677Y-119245639D01*
X44027354Y-119279124D01*
X44000928Y-119280408D01*
X44000928Y-119281950D01*
X43992800Y-119281950D01*
X43849091Y-119300870D01*
X43849087Y-119300871D01*
X43715177Y-119356337D01*
X43600179Y-119444579D01*
X43511937Y-119559577D01*
X43456471Y-119693487D01*
X43456470Y-119693491D01*
X43437550Y-119837199D01*
X43437550Y-119837200D01*
X37482900Y-119837200D01*
X37482900Y-107569000D01*
X83960750Y-107569000D01*
X83979670Y-107712708D01*
X83979671Y-107712712D01*
X84035137Y-107846622D01*
X84035138Y-107846624D01*
X84035139Y-107846625D01*
X84123379Y-107961621D01*
X84238375Y-108049861D01*
X84238376Y-108049861D01*
X84238377Y-108049862D01*
X84278867Y-108066633D01*
X84372291Y-108105330D01*
X84499280Y-108122048D01*
X84515999Y-108124250D01*
X84516000Y-108124250D01*
X84516001Y-108124250D01*
X84551927Y-108119520D01*
X84659709Y-108105330D01*
X84723427Y-108078937D01*
X84770876Y-108069500D01*
X86099857Y-108069500D01*
X86126215Y-108072334D01*
X86130927Y-108073359D01*
X86180461Y-108069815D01*
X86189308Y-108069500D01*
X86202799Y-108069500D01*
X86216156Y-108067579D01*
X86224951Y-108066633D01*
X86274483Y-108063091D01*
X86278992Y-108061408D01*
X86304685Y-108054850D01*
X86309457Y-108054165D01*
X86354637Y-108033530D01*
X86362801Y-108030149D01*
X86409331Y-108012796D01*
X86413189Y-108009907D01*
X86435995Y-107996375D01*
X86440373Y-107994377D01*
X86477899Y-107961859D01*
X86484778Y-107956316D01*
X86495593Y-107948221D01*
X86505155Y-107938658D01*
X86511605Y-107932653D01*
X86549143Y-107900128D01*
X86551751Y-107896068D01*
X86568381Y-107875431D01*
X90249595Y-104194219D01*
X90310918Y-104160734D01*
X90337276Y-104157900D01*
X113873724Y-104157900D01*
X113940763Y-104177585D01*
X113961405Y-104194219D01*
X117253181Y-107485995D01*
X117286666Y-107547318D01*
X117289500Y-107573676D01*
X117289500Y-124967124D01*
X117280062Y-125014572D01*
X117263031Y-125055691D01*
X117253669Y-125078293D01*
X117234750Y-125221999D01*
X117234750Y-125222000D01*
X117253670Y-125365708D01*
X117253671Y-125365712D01*
X117309137Y-125499622D01*
X117309138Y-125499624D01*
X117309139Y-125499625D01*
X117397379Y-125614621D01*
X117512375Y-125702861D01*
X117646291Y-125758330D01*
X117773280Y-125775048D01*
X117789999Y-125777250D01*
X117790000Y-125777250D01*
X117790001Y-125777250D01*
X117804977Y-125775278D01*
X117933709Y-125758330D01*
X118067625Y-125702861D01*
X118182621Y-125614621D01*
X118270861Y-125499625D01*
X118326330Y-125365709D01*
X118345250Y-125222000D01*
X118326330Y-125078291D01*
X118299937Y-125014572D01*
X118290500Y-124967124D01*
X118290500Y-120194678D01*
X124072000Y-120194678D01*
X124086532Y-120267735D01*
X124086533Y-120267739D01*
X124086534Y-120267740D01*
X124141899Y-120350601D01*
X124204532Y-120392450D01*
X124224760Y-120405966D01*
X124224764Y-120405967D01*
X124297821Y-120420499D01*
X124297824Y-120420500D01*
X124297826Y-120420500D01*
X126147176Y-120420500D01*
X126147177Y-120420499D01*
X126220240Y-120405966D01*
X126303101Y-120350601D01*
X126358466Y-120267740D01*
X126373000Y-120194674D01*
X126373000Y-118345326D01*
X126373000Y-118345323D01*
X126372999Y-118345321D01*
X126358467Y-118272264D01*
X126358466Y-118272260D01*
X126303101Y-118189399D01*
X126220240Y-118134034D01*
X126220239Y-118134033D01*
X126220235Y-118134032D01*
X126147177Y-118119500D01*
X126147174Y-118119500D01*
X124297826Y-118119500D01*
X124297823Y-118119500D01*
X124224764Y-118134032D01*
X124224760Y-118134033D01*
X124141899Y-118189399D01*
X124086533Y-118272260D01*
X124086532Y-118272264D01*
X124072000Y-118345321D01*
X124072000Y-120194678D01*
X118290500Y-120194678D01*
X118290500Y-114270000D01*
X120567071Y-114270000D01*
X120586744Y-114482310D01*
X120645096Y-114687392D01*
X120645096Y-114687394D01*
X120740132Y-114878253D01*
X120814788Y-114977112D01*
X120868628Y-115048407D01*
X121026198Y-115192052D01*
X121207481Y-115304298D01*
X121406302Y-115381321D01*
X121615890Y-115420500D01*
X121615892Y-115420500D01*
X121829108Y-115420500D01*
X121829110Y-115420500D01*
X122038698Y-115381321D01*
X122237519Y-115304298D01*
X122418802Y-115192052D01*
X122576372Y-115048407D01*
X122704866Y-114878255D01*
X122727201Y-114833400D01*
X122799903Y-114687394D01*
X122799903Y-114687393D01*
X122799905Y-114687389D01*
X122858256Y-114482310D01*
X122877929Y-114270000D01*
X122858256Y-114057690D01*
X122799905Y-113852611D01*
X122799903Y-113852606D01*
X122799903Y-113852605D01*
X122704867Y-113661746D01*
X122576372Y-113491593D01*
X122524262Y-113444088D01*
X122418802Y-113347948D01*
X122237519Y-113235702D01*
X122237517Y-113235701D01*
X122117108Y-113189055D01*
X122038698Y-113158679D01*
X121829110Y-113119500D01*
X121615890Y-113119500D01*
X121406302Y-113158679D01*
X121406299Y-113158679D01*
X121406299Y-113158680D01*
X121207482Y-113235701D01*
X121207480Y-113235702D01*
X121026199Y-113347947D01*
X120868627Y-113491593D01*
X120740132Y-113661746D01*
X120645096Y-113852605D01*
X120645096Y-113852607D01*
X120586744Y-114057689D01*
X120567071Y-114269999D01*
X120567071Y-114270000D01*
X118290500Y-114270000D01*
X118290500Y-107382143D01*
X118293334Y-107355785D01*
X118294359Y-107351073D01*
X118290816Y-107301537D01*
X118290500Y-107292690D01*
X118290500Y-107279201D01*
X118288579Y-107265843D01*
X118287633Y-107257045D01*
X118284091Y-107207517D01*
X118282407Y-107203002D01*
X118275850Y-107177312D01*
X118275165Y-107172543D01*
X118254530Y-107127360D01*
X118251155Y-107119212D01*
X118233796Y-107072669D01*
X118230905Y-107068807D01*
X118217379Y-107046010D01*
X118215377Y-107041627D01*
X118199464Y-107023262D01*
X118182860Y-107004100D01*
X118177306Y-106997207D01*
X118169228Y-106986416D01*
X118169226Y-106986413D01*
X118169221Y-106986407D01*
X118159677Y-106976863D01*
X118153658Y-106970400D01*
X118121128Y-106932857D01*
X118121125Y-106932854D01*
X118117066Y-106930246D01*
X118096428Y-106913614D01*
X116406577Y-105223763D01*
X124764787Y-105223763D01*
X124794413Y-105493013D01*
X124794415Y-105493024D01*
X124862926Y-105755082D01*
X124862928Y-105755088D01*
X124968870Y-106004390D01*
X125040998Y-106122575D01*
X125109979Y-106235605D01*
X125109986Y-106235615D01*
X125283253Y-106443819D01*
X125283259Y-106443824D01*
X125293698Y-106453177D01*
X125484998Y-106624582D01*
X125710910Y-106774044D01*
X125956176Y-106889020D01*
X125956183Y-106889022D01*
X125956185Y-106889023D01*
X126215557Y-106967057D01*
X126215564Y-106967058D01*
X126215569Y-106967060D01*
X126483561Y-107006500D01*
X126483566Y-107006500D01*
X126686629Y-107006500D01*
X126686631Y-107006500D01*
X126686636Y-107006499D01*
X126686648Y-107006499D01*
X126724191Y-107003750D01*
X126889156Y-106991677D01*
X127026820Y-106961011D01*
X127153546Y-106932782D01*
X127153548Y-106932781D01*
X127153553Y-106932780D01*
X127406558Y-106836014D01*
X127642777Y-106703441D01*
X127857177Y-106537888D01*
X128045186Y-106342881D01*
X128202799Y-106122579D01*
X128276787Y-105978669D01*
X128326649Y-105881690D01*
X128326651Y-105881684D01*
X128326656Y-105881675D01*
X128414118Y-105625305D01*
X128463319Y-105358933D01*
X128473212Y-105088235D01*
X128443586Y-104818982D01*
X128375072Y-104556912D01*
X128269130Y-104307610D01*
X128128018Y-104076390D01*
X128038747Y-103969119D01*
X127954746Y-103868180D01*
X127954740Y-103868175D01*
X127753002Y-103687418D01*
X127527092Y-103537957D01*
X127527090Y-103537956D01*
X127281824Y-103422980D01*
X127281819Y-103422978D01*
X127281814Y-103422976D01*
X127022442Y-103344942D01*
X127022428Y-103344939D01*
X126895610Y-103326276D01*
X126754439Y-103305500D01*
X126551369Y-103305500D01*
X126551351Y-103305500D01*
X126348844Y-103320323D01*
X126348831Y-103320325D01*
X126084453Y-103379217D01*
X126084446Y-103379220D01*
X125831439Y-103475987D01*
X125595226Y-103608557D01*
X125380822Y-103774112D01*
X125192822Y-103969109D01*
X125192816Y-103969116D01*
X125035202Y-104189419D01*
X125035199Y-104189424D01*
X124911350Y-104430309D01*
X124911343Y-104430327D01*
X124823884Y-104686685D01*
X124823881Y-104686699D01*
X124774681Y-104953068D01*
X124774680Y-104953075D01*
X124764787Y-105223763D01*
X116406577Y-105223763D01*
X114533785Y-103350971D01*
X114517150Y-103330328D01*
X114514545Y-103326274D01*
X114514543Y-103326272D01*
X114477014Y-103293753D01*
X114470543Y-103287729D01*
X114460993Y-103278179D01*
X114450185Y-103270088D01*
X114443304Y-103264544D01*
X114405773Y-103232023D01*
X114405772Y-103232022D01*
X114405767Y-103232019D01*
X114401383Y-103230017D01*
X114378594Y-103216496D01*
X114374731Y-103213604D01*
X114374729Y-103213603D01*
X114328190Y-103196245D01*
X114320022Y-103192861D01*
X114274857Y-103172235D01*
X114274855Y-103172234D01*
X114270082Y-103171548D01*
X114244400Y-103164993D01*
X114239886Y-103163309D01*
X114190346Y-103159765D01*
X114181559Y-103158820D01*
X114168199Y-103156900D01*
X114168197Y-103156900D01*
X114154708Y-103156900D01*
X114145861Y-103156584D01*
X114096329Y-103153041D01*
X114096325Y-103153041D01*
X114091615Y-103154066D01*
X114065257Y-103156900D01*
X90145743Y-103156900D01*
X90119385Y-103154066D01*
X90114674Y-103153041D01*
X90114670Y-103153041D01*
X90065139Y-103156584D01*
X90056292Y-103156900D01*
X90042800Y-103156900D01*
X90036663Y-103157782D01*
X90029440Y-103158820D01*
X90020654Y-103159765D01*
X89971116Y-103163309D01*
X89971113Y-103163310D01*
X89966586Y-103164998D01*
X89940927Y-103171546D01*
X89936150Y-103172233D01*
X89936143Y-103172235D01*
X89890965Y-103192866D01*
X89882791Y-103196251D01*
X89836275Y-103213600D01*
X89836264Y-103213606D01*
X89832399Y-103216500D01*
X89809620Y-103230015D01*
X89805236Y-103232017D01*
X89805225Y-103232024D01*
X89767708Y-103264532D01*
X89760826Y-103270078D01*
X89750003Y-103278180D01*
X89740454Y-103287729D01*
X89733984Y-103293753D01*
X89696461Y-103326267D01*
X89696454Y-103326276D01*
X89693843Y-103330338D01*
X89677216Y-103350968D01*
X85996005Y-107032181D01*
X85934682Y-107065666D01*
X85908324Y-107068500D01*
X84770876Y-107068500D01*
X84723427Y-107059062D01*
X84659709Y-107032670D01*
X84659708Y-107032669D01*
X84659706Y-107032669D01*
X84516001Y-107013750D01*
X84515999Y-107013750D01*
X84372291Y-107032670D01*
X84372287Y-107032671D01*
X84238377Y-107088137D01*
X84123379Y-107176379D01*
X84035137Y-107291377D01*
X83979671Y-107425287D01*
X83979670Y-107425291D01*
X83960750Y-107568999D01*
X83960750Y-107569000D01*
X37482900Y-107569000D01*
X37482900Y-106985675D01*
X37492339Y-106938222D01*
X37518730Y-106874509D01*
X37537650Y-106730800D01*
X37518730Y-106587091D01*
X37463261Y-106453175D01*
X37375021Y-106338179D01*
X37260025Y-106249939D01*
X37260024Y-106249938D01*
X37260022Y-106249937D01*
X37126112Y-106194471D01*
X37126110Y-106194470D01*
X37126109Y-106194470D01*
X37054254Y-106185010D01*
X36982401Y-106175550D01*
X36982399Y-106175550D01*
X36838691Y-106194470D01*
X36838687Y-106194471D01*
X36704777Y-106249937D01*
X36589779Y-106338179D01*
X36501537Y-106453177D01*
X36446071Y-106587087D01*
X36446070Y-106587091D01*
X36427150Y-106730800D01*
X29042029Y-106730800D01*
X29090777Y-106703441D01*
X29305177Y-106537888D01*
X29493186Y-106342881D01*
X29650799Y-106122579D01*
X29724787Y-105978669D01*
X29774649Y-105881690D01*
X29774651Y-105881684D01*
X29774656Y-105881675D01*
X29862118Y-105625305D01*
X29911319Y-105358933D01*
X29921212Y-105088235D01*
X29891586Y-104818982D01*
X29823072Y-104556912D01*
X29717130Y-104307610D01*
X29576018Y-104076390D01*
X29486747Y-103969119D01*
X29402746Y-103868180D01*
X29402740Y-103868175D01*
X29201002Y-103687418D01*
X28975092Y-103537957D01*
X28975090Y-103537956D01*
X28729824Y-103422980D01*
X28729819Y-103422978D01*
X28729814Y-103422976D01*
X28470442Y-103344942D01*
X28470428Y-103344939D01*
X28343610Y-103326276D01*
X28202439Y-103305500D01*
X27999369Y-103305500D01*
X27999351Y-103305500D01*
X27796844Y-103320323D01*
X27796831Y-103320325D01*
X27532453Y-103379217D01*
X27532446Y-103379220D01*
X27279439Y-103475987D01*
X27043226Y-103608557D01*
X26828822Y-103774112D01*
X26640822Y-103969109D01*
X26640816Y-103969116D01*
X26483202Y-104189419D01*
X26483199Y-104189424D01*
X26359350Y-104430309D01*
X26359343Y-104430327D01*
X26271884Y-104686685D01*
X26271881Y-104686699D01*
X26222681Y-104953068D01*
X26222680Y-104953075D01*
X26212787Y-105223763D01*
X24511500Y-105223763D01*
X24511500Y-102621410D01*
X24511972Y-102610606D01*
X24512243Y-102607506D01*
X24515432Y-102571056D01*
X24515521Y-102570092D01*
X24528209Y-102441271D01*
X24531832Y-102421354D01*
X24549434Y-102355664D01*
X24550523Y-102351852D01*
X24578809Y-102258605D01*
X24585074Y-102242230D01*
X24616308Y-102175249D01*
X24619273Y-102169318D01*
X24662498Y-102088449D01*
X24670244Y-102075840D01*
X24713820Y-102013607D01*
X24719486Y-102006140D01*
X24776492Y-101936678D01*
X24784626Y-101927704D01*
X24838704Y-101873626D01*
X24847678Y-101865492D01*
X24917140Y-101808486D01*
X24924607Y-101802820D01*
X24986840Y-101759244D01*
X24999449Y-101751498D01*
X25080318Y-101708273D01*
X25086249Y-101705308D01*
X25153230Y-101674074D01*
X25169605Y-101667809D01*
X25262852Y-101639523D01*
X25266664Y-101638434D01*
X25332354Y-101620832D01*
X25352271Y-101617209D01*
X25481092Y-101604521D01*
X25482056Y-101604432D01*
X25518506Y-101601243D01*
X25521606Y-101600972D01*
X25532410Y-101600500D01*
X129153590Y-101600500D01*
X129164394Y-101600971D01*
G37*
%TD.AperFunction*%
%TA.AperFunction,Conductor*%
G36*
X90214495Y-137278185D02*
G01*
X90235137Y-137294819D01*
X90983360Y-138043041D01*
X90999484Y-138062896D01*
X91004563Y-138070669D01*
X91027478Y-138088504D01*
X91037728Y-138097558D01*
X91038690Y-138098372D01*
X91054347Y-138109551D01*
X91058459Y-138112617D01*
X91096874Y-138142517D01*
X91103346Y-138146019D01*
X91109934Y-138149240D01*
X91156593Y-138163131D01*
X91161437Y-138164682D01*
X91207512Y-138180500D01*
X91207515Y-138180501D01*
X91214730Y-138181704D01*
X91222044Y-138182616D01*
X91222046Y-138182617D01*
X91222047Y-138182616D01*
X91222048Y-138182617D01*
X91270668Y-138180606D01*
X91275793Y-138180500D01*
X91919203Y-138180500D01*
X91986242Y-138200185D01*
X92031997Y-138252989D01*
X92042141Y-138320685D01*
X92033984Y-138382648D01*
X92027750Y-138429999D01*
X92027750Y-138430000D01*
X92046670Y-138573708D01*
X92046671Y-138573712D01*
X92102137Y-138707622D01*
X92102138Y-138707624D01*
X92102139Y-138707625D01*
X92190379Y-138822621D01*
X92213980Y-138840731D01*
X92223616Y-138848125D01*
X92264818Y-138904553D01*
X92268973Y-138974299D01*
X92234760Y-139035219D01*
X92173043Y-139067971D01*
X92148129Y-139070500D01*
X90752206Y-139070500D01*
X90726761Y-139067861D01*
X90725831Y-139067666D01*
X90717685Y-139065958D01*
X90717684Y-139065958D01*
X90688884Y-139069548D01*
X90675181Y-139070398D01*
X90673962Y-139070499D01*
X90654990Y-139073665D01*
X90649923Y-139074403D01*
X90601605Y-139080426D01*
X90594584Y-139082516D01*
X90587617Y-139084908D01*
X90544812Y-139108072D01*
X90540261Y-139110415D01*
X90496513Y-139131803D01*
X90490566Y-139136047D01*
X90484738Y-139140584D01*
X90451780Y-139176386D01*
X90448233Y-139180083D01*
X83203137Y-146425181D01*
X83141814Y-146458666D01*
X83115456Y-146461500D01*
X82166000Y-146461500D01*
X82098961Y-146441815D01*
X82053206Y-146389011D01*
X82042000Y-146337500D01*
X82042000Y-137382500D01*
X82061685Y-137315461D01*
X82114489Y-137269706D01*
X82166000Y-137258500D01*
X90147456Y-137258500D01*
X90214495Y-137278185D01*
G37*
%TD.AperFunction*%
%TA.AperFunction,Conductor*%
G36*
X101698495Y-132612185D02*
G01*
X101719137Y-132628819D01*
X104336137Y-135245819D01*
X104369622Y-135307142D01*
X104364638Y-135376834D01*
X104322766Y-135432767D01*
X104257302Y-135457184D01*
X104248456Y-135457500D01*
X103929323Y-135457500D01*
X103856264Y-135472032D01*
X103856260Y-135472033D01*
X103809664Y-135503167D01*
X103782888Y-135521058D01*
X103716213Y-135541935D01*
X103648833Y-135523450D01*
X103645132Y-135521072D01*
X103577586Y-135475940D01*
X103571739Y-135472033D01*
X103571735Y-135472032D01*
X103498677Y-135457500D01*
X103498674Y-135457500D01*
X102829326Y-135457500D01*
X102829323Y-135457500D01*
X102756264Y-135472032D01*
X102756260Y-135472033D01*
X102709664Y-135503167D01*
X102682888Y-135521058D01*
X102616213Y-135541935D01*
X102548833Y-135523450D01*
X102545132Y-135521072D01*
X102477586Y-135475940D01*
X102471739Y-135472033D01*
X102471735Y-135472032D01*
X102398677Y-135457500D01*
X102398674Y-135457500D01*
X101729326Y-135457500D01*
X101729323Y-135457500D01*
X101656264Y-135472032D01*
X101656260Y-135472033D01*
X101573399Y-135527399D01*
X101518033Y-135610260D01*
X101518032Y-135610264D01*
X101503500Y-135683321D01*
X101503500Y-137132678D01*
X101518032Y-137205735D01*
X101518033Y-137205739D01*
X101518034Y-137205740D01*
X101573399Y-137288601D01*
X101656260Y-137343966D01*
X101656262Y-137343966D01*
X101658390Y-137345388D01*
X101703195Y-137399000D01*
X101713500Y-137448491D01*
X101713500Y-138023456D01*
X101693815Y-138090495D01*
X101677181Y-138111137D01*
X100754137Y-139034181D01*
X100692814Y-139067666D01*
X100666456Y-139070500D01*
X93017871Y-139070500D01*
X92950832Y-139050815D01*
X92905077Y-138998011D01*
X92895133Y-138928853D01*
X92924158Y-138865297D01*
X92942384Y-138848125D01*
X92952998Y-138839980D01*
X92975621Y-138822621D01*
X92975623Y-138822619D01*
X92981372Y-138816871D01*
X92983888Y-138819387D01*
X93027183Y-138787797D01*
X93069092Y-138780500D01*
X96181367Y-138780500D01*
X96206812Y-138783138D01*
X96215893Y-138785043D01*
X96241251Y-138781881D01*
X96244701Y-138781452D01*
X96258342Y-138780605D01*
X96259604Y-138780500D01*
X96259618Y-138780500D01*
X96267649Y-138779159D01*
X96278592Y-138777334D01*
X96283641Y-138776597D01*
X96331971Y-138770573D01*
X96331977Y-138770569D01*
X96339034Y-138768468D01*
X96345955Y-138766092D01*
X96345959Y-138766092D01*
X96388794Y-138742909D01*
X96393307Y-138740586D01*
X96437062Y-138719198D01*
X96437064Y-138719195D01*
X96443039Y-138714929D01*
X96448834Y-138710419D01*
X96448833Y-138710419D01*
X96448836Y-138710418D01*
X96481832Y-138674572D01*
X96485334Y-138670924D01*
X97761440Y-137394819D01*
X97822763Y-137361334D01*
X97849121Y-137358500D01*
X97998676Y-137358500D01*
X97998677Y-137358499D01*
X98071740Y-137343966D01*
X98145112Y-137294940D01*
X98211786Y-137274064D01*
X98279167Y-137292548D01*
X98282841Y-137294910D01*
X98356260Y-137343966D01*
X98356262Y-137343966D01*
X98356264Y-137343967D01*
X98429321Y-137358499D01*
X98429324Y-137358500D01*
X98429326Y-137358500D01*
X99098676Y-137358500D01*
X99098677Y-137358499D01*
X99171740Y-137343966D01*
X99245112Y-137294940D01*
X99311786Y-137274064D01*
X99379167Y-137292548D01*
X99382841Y-137294910D01*
X99416392Y-137317327D01*
X99461196Y-137370938D01*
X99471500Y-137420428D01*
X99471500Y-137435908D01*
X99451815Y-137502947D01*
X99433913Y-137522412D01*
X99435129Y-137523628D01*
X99429384Y-137529372D01*
X99341137Y-137644377D01*
X99285671Y-137778287D01*
X99285670Y-137778291D01*
X99266750Y-137921999D01*
X99266750Y-137922000D01*
X99285670Y-138065708D01*
X99285671Y-138065712D01*
X99341137Y-138199622D01*
X99341138Y-138199624D01*
X99341139Y-138199625D01*
X99429379Y-138314621D01*
X99544375Y-138402861D01*
X99678291Y-138458330D01*
X99796426Y-138473883D01*
X99821999Y-138477250D01*
X99822000Y-138477250D01*
X99822001Y-138477250D01*
X99847574Y-138473883D01*
X99965709Y-138458330D01*
X100099625Y-138402861D01*
X100214621Y-138314621D01*
X100302861Y-138199625D01*
X100358330Y-138065709D01*
X100377250Y-137922000D01*
X100358330Y-137778291D01*
X100302861Y-137644375D01*
X100302860Y-137644374D01*
X100302860Y-137644373D01*
X100218814Y-137534844D01*
X100193619Y-137469675D01*
X100207657Y-137401230D01*
X100256471Y-137351240D01*
X100269738Y-137344795D01*
X100271733Y-137343967D01*
X100271740Y-137343966D01*
X100354601Y-137288601D01*
X100409966Y-137205740D01*
X100424500Y-137132674D01*
X100424500Y-135683326D01*
X100424500Y-135683323D01*
X100424499Y-135683321D01*
X100409967Y-135610264D01*
X100409966Y-135610260D01*
X100407778Y-135606986D01*
X100354601Y-135527399D01*
X100277586Y-135475940D01*
X100271739Y-135472033D01*
X100271735Y-135472032D01*
X100198677Y-135457500D01*
X100198674Y-135457500D01*
X99529326Y-135457500D01*
X99529323Y-135457500D01*
X99456264Y-135472032D01*
X99456260Y-135472033D01*
X99409664Y-135503167D01*
X99382888Y-135521058D01*
X99316213Y-135541935D01*
X99248833Y-135523450D01*
X99245132Y-135521072D01*
X99171740Y-135472034D01*
X99171739Y-135472033D01*
X99169610Y-135470611D01*
X99124804Y-135416998D01*
X99114500Y-135367508D01*
X99114500Y-135008211D01*
X99117139Y-134982764D01*
X99119043Y-134973685D01*
X99115452Y-134944877D01*
X99114602Y-134931192D01*
X99114501Y-134929970D01*
X99114500Y-134929964D01*
X99114500Y-134929960D01*
X99111330Y-134910966D01*
X99110595Y-134905918D01*
X99104573Y-134857607D01*
X99102475Y-134850561D01*
X99100092Y-134843619D01*
X99076925Y-134800810D01*
X99074580Y-134796253D01*
X99053200Y-134752521D01*
X99053199Y-134752520D01*
X99053198Y-134752517D01*
X99053195Y-134752514D01*
X99048929Y-134746538D01*
X99044420Y-134740746D01*
X99044418Y-134740742D01*
X99008588Y-134707758D01*
X99004891Y-134704210D01*
X98326637Y-134025955D01*
X98310511Y-134006098D01*
X98305437Y-133998331D01*
X98282524Y-133980497D01*
X98272248Y-133971422D01*
X98271309Y-133970627D01*
X98271307Y-133970625D01*
X98255651Y-133959447D01*
X98251544Y-133956385D01*
X98245838Y-133951943D01*
X98213126Y-133926483D01*
X98213124Y-133926482D01*
X98206640Y-133922973D01*
X98200067Y-133919759D01*
X98153409Y-133905868D01*
X98148532Y-133904306D01*
X98102484Y-133888498D01*
X98095287Y-133887297D01*
X98087951Y-133886382D01*
X98039332Y-133888394D01*
X98034207Y-133888500D01*
X97768092Y-133888500D01*
X97701053Y-133868815D01*
X97681587Y-133850913D01*
X97680372Y-133852129D01*
X97674627Y-133846384D01*
X97674621Y-133846379D01*
X97559625Y-133758139D01*
X97559624Y-133758138D01*
X97559622Y-133758137D01*
X97425712Y-133702671D01*
X97425710Y-133702670D01*
X97425709Y-133702670D01*
X97353854Y-133693210D01*
X97282001Y-133683750D01*
X97281999Y-133683750D01*
X97138291Y-133702670D01*
X97138287Y-133702671D01*
X97004377Y-133758137D01*
X96889379Y-133846379D01*
X96801137Y-133961377D01*
X96745671Y-134095287D01*
X96745670Y-134095291D01*
X96726750Y-134238999D01*
X96726750Y-134239000D01*
X96745670Y-134382708D01*
X96745671Y-134382712D01*
X96801137Y-134516622D01*
X96801138Y-134516624D01*
X96801139Y-134516625D01*
X96889379Y-134631621D01*
X97004375Y-134719861D01*
X97138291Y-134775330D01*
X97265280Y-134792048D01*
X97281999Y-134794250D01*
X97282000Y-134794250D01*
X97282001Y-134794250D01*
X97296977Y-134792278D01*
X97425709Y-134775330D01*
X97559625Y-134719861D01*
X97674621Y-134631621D01*
X97674623Y-134631617D01*
X97674627Y-134631615D01*
X97680372Y-134625871D01*
X97682888Y-134628387D01*
X97726183Y-134596797D01*
X97768092Y-134589500D01*
X97847456Y-134589500D01*
X97914495Y-134609185D01*
X97935137Y-134625819D01*
X98377181Y-135067862D01*
X98410666Y-135129185D01*
X98413500Y-135155543D01*
X98413500Y-135367508D01*
X98393815Y-135434547D01*
X98358390Y-135470611D01*
X98356260Y-135472033D01*
X98356260Y-135472034D01*
X98282888Y-135521058D01*
X98216213Y-135541935D01*
X98148833Y-135523450D01*
X98145132Y-135521072D01*
X98077586Y-135475940D01*
X98071739Y-135472033D01*
X98071735Y-135472032D01*
X97998677Y-135457500D01*
X97998674Y-135457500D01*
X97329326Y-135457500D01*
X97329323Y-135457500D01*
X97256264Y-135472032D01*
X97256260Y-135472033D01*
X97209664Y-135503167D01*
X97182888Y-135521058D01*
X97116213Y-135541935D01*
X97048833Y-135523450D01*
X97045132Y-135521072D01*
X96977586Y-135475940D01*
X96971739Y-135472033D01*
X96971735Y-135472032D01*
X96898677Y-135457500D01*
X96898674Y-135457500D01*
X96229326Y-135457500D01*
X96229323Y-135457500D01*
X96156264Y-135472032D01*
X96156260Y-135472033D01*
X96109664Y-135503167D01*
X96082888Y-135521058D01*
X96016213Y-135541935D01*
X95948833Y-135523450D01*
X95945132Y-135521072D01*
X95877586Y-135475940D01*
X95871739Y-135472033D01*
X95871735Y-135472032D01*
X95798677Y-135457500D01*
X95798674Y-135457500D01*
X95129326Y-135457500D01*
X95129323Y-135457500D01*
X95056264Y-135472032D01*
X95056260Y-135472033D01*
X94973399Y-135527399D01*
X94918033Y-135610260D01*
X94918032Y-135610264D01*
X94903500Y-135683321D01*
X94903500Y-137132678D01*
X94918032Y-137205735D01*
X94918033Y-137205739D01*
X94918034Y-137205740D01*
X94966439Y-137278185D01*
X94972069Y-137286610D01*
X94992946Y-137353288D01*
X94974461Y-137420668D01*
X94922482Y-137467357D01*
X94868966Y-137479500D01*
X91462544Y-137479500D01*
X91395505Y-137459815D01*
X91374863Y-137443181D01*
X90626637Y-136694955D01*
X90610511Y-136675098D01*
X90605437Y-136667331D01*
X90582524Y-136649497D01*
X90572248Y-136640422D01*
X90571309Y-136639627D01*
X90571307Y-136639625D01*
X90555651Y-136628447D01*
X90551544Y-136625385D01*
X90514169Y-136596295D01*
X90513126Y-136595483D01*
X90513124Y-136595482D01*
X90506640Y-136591973D01*
X90500067Y-136588759D01*
X90453409Y-136574868D01*
X90448532Y-136573306D01*
X90402484Y-136557498D01*
X90395287Y-136556297D01*
X90387951Y-136555382D01*
X90339332Y-136557394D01*
X90334207Y-136557500D01*
X82166000Y-136557500D01*
X82098961Y-136537815D01*
X82053206Y-136485011D01*
X82042000Y-136433500D01*
X82042000Y-134297500D01*
X82061685Y-134230461D01*
X82114489Y-134184706D01*
X82166000Y-134173500D01*
X87234789Y-134173500D01*
X87260234Y-134176138D01*
X87269315Y-134178043D01*
X87294673Y-134174881D01*
X87298123Y-134174452D01*
X87311764Y-134173605D01*
X87313026Y-134173500D01*
X87313040Y-134173500D01*
X87321071Y-134172159D01*
X87332014Y-134170334D01*
X87337063Y-134169597D01*
X87385393Y-134163573D01*
X87385399Y-134163569D01*
X87392456Y-134161468D01*
X87399377Y-134159092D01*
X87399381Y-134159092D01*
X87442216Y-134135909D01*
X87446729Y-134133586D01*
X87490484Y-134112198D01*
X87490486Y-134112195D01*
X87496461Y-134107929D01*
X87502256Y-134103419D01*
X87502255Y-134103419D01*
X87502258Y-134103418D01*
X87535254Y-134067572D01*
X87538756Y-134063924D01*
X88169123Y-133433557D01*
X88230444Y-133400074D01*
X88256871Y-133399144D01*
X88256871Y-133397250D01*
X88265000Y-133397250D01*
X88408709Y-133378330D01*
X88542625Y-133322861D01*
X88657621Y-133234621D01*
X88745861Y-133119625D01*
X88801330Y-132985709D01*
X88820250Y-132842000D01*
X88805858Y-132732685D01*
X88816623Y-132663651D01*
X88863003Y-132611395D01*
X88928797Y-132592500D01*
X101631456Y-132592500D01*
X101698495Y-132612185D01*
G37*
%TD.AperFunction*%
%TD*%
M02*
